<svg xmlns="http://www.w3.org/2000/svg" xmlns:xlink="http://www.w3.org/1999/xlink" viewBox="0 0 580 820"><defs><style>.a{fill:#ff8d6d;}.b{isolation:isolate;}.c{clip-path:url(#a);}.d,.h{fill:#e56a54;}.d{opacity:0.5;}.d,.f,.n{mix-blend-mode:multiply;}.e{fill:#c95757;}.f{fill:#d6abab;}.g{fill:#fffaf5;}.i,.n{fill:#c9ad97;}.j{fill:#685866;}.k{fill:#f0e6dd;}.l{fill:#997c95;}.m{fill:#fff4eb;}.n{opacity:0.46;}.o{fill:#a69f88;}.p{fill:#c7e5dd;}.q{fill:#d9c89e;}</style><clipPath id="a"><rect class="a" x="1.06" width="578.94" height="819.99"/></clipPath></defs><g class="b"><rect class="a" x="1.06" width="578.94" height="819.99"/><g class="c"><rect class="a" x="-47.57" y="-65.6" width="678.51" height="959.39"/></g><path class="d" d="M567.87,503.58l-7.1-.76a20.9,20.9,0,0,1-4.38-.82,20.35,20.35,0,0,1-5.3-3.1c-5.66-4.12-11-8-15-13.71l-.26-.34-.21-.28c-.74-1-1.47-2.05-2.17-3.08-1.54-2.26-2.85-4.82-4.39-7.16-1.28-2.27-2.52-4.55-3.74-6.83a2,2,0,0,0-3.05-.39l-26.84,22.18a1038.94,1038.94,0,0,1-88.24-96.17,1.63,1.63,0,0,0-2.28,0,751.62,751.62,0,0,0-58.19,53.81q-13.63,14-26.52,28.77c-3.84,4.39-8,11.19-13.82,13-6.47,2-14.8.9-21.51,1-26.79.45-53.84.28-80.33-4.29-6.23-1.07-12.45-2.35-18.57-3.92q-5.13-1.31-10.17-2.9c-2.44-.77-5.78-2.86-8.3-2.8s-6.07,4.1-7.68,5.71c-3.5,3.53-6.43,7.6-9.8,11.24-4.67,5.05-9.71,8.22-16.72,8.61-7.8.41-15.72,0-23.52,0q-24.76-.1-49.53-.08a.25.25,0,0,0,0,.5q10.7.25,21.39.46H63.36v2.36h500.4c2.57,0,6.23.5,8.39-.46C570.73,503.91,569.3,503.74,567.87,503.58Z"/><path class="d" d="M119.36,388.07a6.53,6.53,0,0,0-6.53,6.53v18.2L109,415.86v-15a13.68,13.68,0,1,0-27.35,0v35.95l-4.08-2v-7.73a8.66,8.66,0,1,0-17.32,0v18.55l21.4,10.44v13.46l-2.73-2.19v-8.43a4.66,4.66,0,0,0-9.32,0v12.9l12,9.68v19.42H109V432.47a6.94,6.94,0,0,0,1-.65l15.88-12.77V394.6A6.52,6.52,0,0,0,119.36,388.07Z"/><path class="e" d="M513.38,528.18l-2.21,0a31.71,31.71,0,0,1-.27-7.42c.08-.6-1-.75-1.06-.14a17.41,17.41,0,0,0,.29,7.57h-.27c-.22-1.13-1.62-2-2.4-2.81-1.2-1.2-2.48-2.32-3.74-3.45a.52.52,0,0,0-.74.73c1.14,1.26,2.26,2.55,3.46,3.75.5.49,1.05,1.25,1.67,1.79q-9.71.1-19.43.17V469l21.73-17.46V413.45a8.89,8.89,0,1,0-17.77,0V443l-4,3.18V404.14a17,17,0,1,0-34,0V466.4L452,464.48V452.74a8.89,8.89,0,0,0-17.78,0v20.89l20.47,14.62v40.16h31.17c-18.63.13-37.27.3-55.87,1a.23.23,0,0,0,0,.45c27.76.65,55.59.14,83.36.08A.88.88,0,0,0,513.38,528.18Z"/><path class="e" d="M517.75,525.07a22,22,0,0,1,.15-4.29c.08-.65-1.07-.81-1.16-.16-.39,2.79-.65,6.34.78,8.89a.41.41,0,0,0,.76-.21C518.25,527.88,517.85,526.49,517.75,525.07Z"/><path class="e" d="M521.32,525.25l-.81,2.67a4.54,4.54,0,0,0-.34,2.29.41.41,0,0,0,.68.18,4.69,4.69,0,0,0,1-2.11l.78-2.68C522.83,524.79,521.57,524.45,521.32,525.25Z"/><ellipse class="f" cx="290" cy="588.97" rx="89.15" ry="4.46"/><path class="g" d="M377.8,166.78c-57.41,0-101.76,31.69-99.14,66.61,1.13,15.2,10.14,28.57,24.24,38.84-5.2,6.77-10.49,13.21-18.63,17.8-11.72,6.6-27,8-38.47,1.05,1.62,8.39,11.7,12.14,20.25,12.16,19.2.05,36.3-10.53,52-22.1,16.76,8,37.55,12.6,59.77,12.62,52.18-.06,96.54-25.35,99.14-60.37S435.21,166.74,377.8,166.78Z"/><path class="h" d="M329.33,232.26a10.34,10.34,0,0,1-4.8-1.09,10.48,10.48,0,0,1-3.64-3,14.16,14.16,0,0,1-2.31-4.63,20.31,20.31,0,0,1-.8-5.89,25.55,25.55,0,0,1,.25-3.55,26.06,26.06,0,0,1,.76-3.63,27.2,27.2,0,0,1,1.27-3.54,21.18,21.18,0,0,1,1.77-3.29,19.66,19.66,0,0,1,2.26-2.85,14.46,14.46,0,0,1,2.76-2.25,13.94,13.94,0,0,1,3.26-1.48,12.92,12.92,0,0,1,3.75-.53,11.34,11.34,0,0,1,4.8,1,10.06,10.06,0,0,1,3.58,2.72,12.31,12.31,0,0,1,2.24,4.16,17.36,17.36,0,0,1,.77,5.34,27.35,27.35,0,0,1-.47,5,31.57,31.57,0,0,1-1.39,5.1,26.74,26.74,0,0,1-2.27,4.77,19.12,19.12,0,0,1-3.13,4,14.25,14.25,0,0,1-3.94,2.72A11.11,11.11,0,0,1,329.33,232.26Zm.43-4.16a6.45,6.45,0,0,0,2.67-.55,8.47,8.47,0,0,0,2.26-1.54,12.55,12.55,0,0,0,1.88-2.28,20.19,20.19,0,0,0,1.51-2.8,26.65,26.65,0,0,0,1.15-3.1c.33-1.07.6-2.13.82-3.18s.37-2.05.47-3a25.64,25.64,0,0,0,.15-2.64,13.54,13.54,0,0,0-.37-3.25,8.08,8.08,0,0,0-1.14-2.65,5.51,5.51,0,0,0-1.91-1.78,5.44,5.44,0,0,0-2.69-.65,6.89,6.89,0,0,0-3.19.8,12.13,12.13,0,0,0-2.9,2.17,18.45,18.45,0,0,0-2.48,3.15,25,25,0,0,0-1.94,3.78,25.47,25.47,0,0,0-1.25,4,18.34,18.34,0,0,0-.44,3.93,13.63,13.63,0,0,0,.51,3.8,9.28,9.28,0,0,0,1.46,3,7,7,0,0,0,2.33,2A6.53,6.53,0,0,0,329.76,228.1Z"/><path class="h" d="M358.24,215a9.21,9.21,0,0,1,.78,2.19,12.11,12.11,0,0,1,.26,2.6,10.29,10.29,0,0,1-.23,2.13,11.47,11.47,0,0,1-.67,2.08,10.22,10.22,0,0,1-1.08,1.87,7.5,7.5,0,0,1-1.44,1.53,7.68,7.68,0,0,1-1.78,1,5.66,5.66,0,0,1-2.06.37,5,5,0,0,1-2.69-.69,5.75,5.75,0,0,1-1.84-1.8,8.11,8.11,0,0,1-1.05-2.5,12.23,12.23,0,0,1-.33-2.83,12.62,12.62,0,0,1,.59-4.07,9,9,0,0,1,1.69-3,7.88,7.88,0,0,1,2.7-2,8.42,8.42,0,0,1,3.58-.73,9.47,9.47,0,0,1,3.18.53,11.68,11.68,0,0,1,5.2,3.64c.74.9,1.44,1.75,2.08,2.56l-.34,2.52a10.65,10.65,0,0,0-1.3-1.39c-.55-.5-1.13-1.06-1.75-1.67a13.67,13.67,0,0,0-1.82-1.54c-.59-.43-1.1-.78-1.53-1.07Zm-5.53,10.36a1.67,1.67,0,0,0,1.19-.62,5.9,5.9,0,0,0,1-1.56,10.75,10.75,0,0,0,.69-2.27,12.84,12.84,0,0,0,.26-2.37,9.09,9.09,0,0,0-.13-1.53,4.56,4.56,0,0,0-.38-1.23,2.21,2.21,0,0,0-.64-.82,1.52,1.52,0,0,0-.95-.3,2,2,0,0,0-1.39.62,6,6,0,0,0-1.17,1.61,9.57,9.57,0,0,0-.78,2.15,11.43,11.43,0,0,0-.29,2.67,7,7,0,0,0,.14,1.41,3.73,3.73,0,0,0,.45,1.15,2.27,2.27,0,0,0,2,1.09Z"/><path class="h" d="M370.17,225.39a14.47,14.47,0,0,0,3.28-.35,12.16,12.16,0,0,0,2.69-.94,11.75,11.75,0,0,0,2.19-1.37,15.69,15.69,0,0,0,1.76-1.69l.19,4a9.79,9.79,0,0,1-1.38,1.45,11,11,0,0,1-1.78,1.22,10.59,10.59,0,0,1-2,.84,7.39,7.39,0,0,1-2.11.31,1.38,1.38,0,0,1-.31,0l-.65-.13-1.33-.26c-.57-.11-1.35-.24-2.34-.4v.32a29.25,29.25,0,0,1-.56,5.94,19.66,19.66,0,0,1-1.5,4.56,9.2,9.2,0,0,1-2.16,2.91,3.89,3.89,0,0,1-2.52,1,2.81,2.81,0,0,1-1.7-.5,3.52,3.52,0,0,1-1.09-1.36,7.74,7.74,0,0,1-.57-2,17.06,17.06,0,0,1-.17-2.43,7.23,7.23,0,0,1,.23-1.67,18.38,18.38,0,0,1,.63-2c.26-.68.56-1.38.89-2.08s.66-1.4,1-2.06q1.21-2.33,2.77-4.78c.13-.9.27-1.83.41-2.77s.31-1.88.53-2.79a15.57,15.57,0,0,1,1-2.87,10.08,10.08,0,0,1,1.43-2.41,5.35,5.35,0,0,1,4.39-2,6.71,6.71,0,0,1,2,.3,4.39,4.39,0,0,1,1.66,1,4.69,4.69,0,0,1,1.13,1.72,7.25,7.25,0,0,1,.41,2.59,7.17,7.17,0,0,1-.36,2.54,8.5,8.5,0,0,1-1.38,2.38,12.13,12.13,0,0,1-2,1.87,13.3,13.3,0,0,1-2.78,1.57Zm-8.67,11.28a2.86,2.86,0,0,0,.06.46,2.66,2.66,0,0,0,.21.64,2.15,2.15,0,0,0,.37.57.76.76,0,0,0,.58.25.59.59,0,0,0,.5-.33,3,3,0,0,0,.32-.88,9.85,9.85,0,0,0,.18-1.25c0-.46.06-.93.08-1.42s0-1,0-1.42,0-.88.05-1.25c0-.64.07-1.18.08-1.63s0-.81,0-1.11,0-.62,0-.87a11,11,0,0,0-.66,1.37c-.22.52-.42,1.06-.61,1.62s-.37,1.12-.52,1.68-.29,1.08-.4,1.56-.21.9-.27,1.25A4.24,4.24,0,0,0,361.5,236.67Zm6.4-13a9.71,9.71,0,0,0,1.86-1.16,10.07,10.07,0,0,0,1.33-1.37c.15,0,.52-.56,1.11-1.6a12.65,12.65,0,0,0,.75-2,4.41,4.41,0,0,0,.11-.89,2.75,2.75,0,0,0-.1-1,1.83,1.83,0,0,0-.46-.77,1.26,1.26,0,0,0-.92-.32,2,2,0,0,0-1.17.35,3.38,3.38,0,0,0-.87,1,6.36,6.36,0,0,0-.6,1.44c-.17.55-.36,1.24-.58,2.05a11.32,11.32,0,0,0-.39,2.25C367.92,222.27,367.9,223,367.9,223.64Z"/><path class="h" d="M377.59,222.07c.66-.58,1.21-1.06,1.62-1.45a11.9,11.9,0,0,0,1.26-1.35l1-1.25.87-1.16c.33-.45.74-1,1.21-1.64s1.1-1.45,1.86-2.41a6.21,6.21,0,0,1,.52-.63,4.28,4.28,0,0,1,.64-.56,3.28,3.28,0,0,1,.77-.39,2.54,2.54,0,0,1,.94-.16,3.77,3.77,0,0,1,1.32.19,1.65,1.65,0,0,1,.68.46,1.19,1.19,0,0,1,.25.57,3.56,3.56,0,0,1,0,.52,1.86,1.86,0,0,1-.34,1,10.56,10.56,0,0,1-.75,1l-.78.9a1.7,1.7,0,0,0-.42.6,5.28,5.28,0,0,0,.08,1,7.09,7.09,0,0,0,.22.91c.09.29.18.61.28.94s.19.71.28,1.15a6.7,6.7,0,0,1,0,1.79c-.07.76-.1,1.52-.1,2.29a9.79,9.79,0,0,1,1.39-.78l1.54-.74c.54-.25,1.09-.53,1.66-.84a13,13,0,0,0,1.71-1.11V225a17.53,17.53,0,0,1-2.56,1.56,27.07,27.07,0,0,1-3.07,1.27,23.28,23.28,0,0,1-3.25.87,15.62,15.62,0,0,1-3.1.32,9.48,9.48,0,0,1-2-.19,5.06,5.06,0,0,1-1.6-.59,3.31,3.31,0,0,1-1.12-1,3.48,3.48,0,0,1-.52-1.57,4.13,4.13,0,0,1-.49.07l-.47,0-.54,0a.84.84,0,0,1-.43-.14.72.72,0,0,1-.28-.38,1.85,1.85,0,0,1-.11-.75,1.59,1.59,0,0,1,.21-.8,3.37,3.37,0,0,1,.5-.66c.2-.19.39-.36.58-.51S377.49,222.15,377.59,222.07Zm2.23,2.31a.7.7,0,0,1,.47.27l.6.6a4.43,4.43,0,0,0,.79.6,1.94,1.94,0,0,0,1,.27,2.45,2.45,0,0,0,1.15-.24,1.85,1.85,0,0,0,.73-.62,2.41,2.41,0,0,0,.37-.9,4.83,4.83,0,0,0,.11-1.08,8.22,8.22,0,0,0-.06-1,5.4,5.4,0,0,1,0-1.26,3.22,3.22,0,0,0,0-1.16l-.21-.69Z"/><path class="h" d="M401.25,225.82a1.49,1.49,0,0,0-.06.31,3.28,3.28,0,0,1-.13.58,4,4,0,0,1-.27.72,2.28,2.28,0,0,1-.53.69,2.84,2.84,0,0,1-.89.53,3.69,3.69,0,0,1-1.34.21,4.1,4.1,0,0,1-1.2-.16,2.38,2.38,0,0,1-.92-.48,2.08,2.08,0,0,1-.6-.82,3.14,3.14,0,0,1-.21-1.2,3.74,3.74,0,0,1,.18-1.15,2.91,2.91,0,0,1,.59-1,2.71,2.71,0,0,1,1-.69,3.7,3.7,0,0,1,1.48-.26,3.07,3.07,0,0,1,2.15.68,2.48,2.48,0,0,1,.75,1.94A.22.22,0,0,1,401.25,225.82Zm-3.11-6.16c.12-1.23.3-2.49.53-3.8s.54-2.61.9-3.9.72-2.58,1.07-3.85.7-2.5,1-3.67.63-2.28.92-3.31l.78-2.8a3.45,3.45,0,0,1,.7-1.38,3.66,3.66,0,0,1,1-.83,4.08,4.08,0,0,1,1.19-.4,7.47,7.47,0,0,1,1.22-.11,2,2,0,0,1,.56.08.85.85,0,0,1,.45.26,1.14,1.14,0,0,1,.29.51,3.36,3.36,0,0,1,.1.85,7.61,7.61,0,0,1,0,.79c0,.29-.08.63-.15,1q-.61,2.06-1.26,4.17a41.26,41.26,0,0,1-1.67,4.52c-.7,1.59-1.49,3.35-2.37,5.26s-1.88,4.11-3,6.58a.87.87,0,0,1-.19.37,1.17,1.17,0,0,1-.37.28,1.7,1.7,0,0,1-.46.18,2.14,2.14,0,0,1-.49.07,1.09,1.09,0,0,1-.58-.15.5.5,0,0,1-.24-.48A1.16,1.16,0,0,1,398.14,219.66Z"/><path class="i" d="M381.33,238.07h-2.5v-1.7h6.91v1.7h-2.49v7h-1.92Z"/><path class="i" d="M388.34,235.78v4.14h0a1,1,0,0,1,.21-.34,1.55,1.55,0,0,1,.36-.31,1.7,1.7,0,0,1,.49-.22A2.06,2.06,0,0,1,390,239a2.42,2.42,0,0,1,1.13.22,1.64,1.64,0,0,1,.68.59,2.34,2.34,0,0,1,.32.91,6.52,6.52,0,0,1,.09,1.12v3.31h-1.85v-2.94c0-.17,0-.35,0-.54a1.72,1.72,0,0,0-.11-.51.9.9,0,0,0-.28-.38.88.88,0,0,0-.55-.15,1.08,1.08,0,0,0-.58.13.92.92,0,0,0-.34.34,1.57,1.57,0,0,0-.16.49,5.17,5.17,0,0,0,0,.57v3h-1.86v-9.33Z"/><path class="i" d="M397.33,244.35h0a1.77,1.77,0,0,1-.82.69,2.85,2.85,0,0,1-1.08.21,3.1,3.1,0,0,1-.81-.11,2.06,2.06,0,0,1-.69-.36,1.69,1.69,0,0,1-.47-.58,2,2,0,0,1,0-1.67,1.77,1.77,0,0,1,.52-.6,2.89,2.89,0,0,1,.75-.36,5,5,0,0,1,.87-.19c.3,0,.6-.07.9-.08h.83a1,1,0,0,0-.35-.78,1.27,1.27,0,0,0-.83-.29,1.79,1.79,0,0,0-.84.19,2.37,2.37,0,0,0-.67.52l-1-1a3.45,3.45,0,0,1,1.21-.72,4.34,4.34,0,0,1,1.43-.24,3.86,3.86,0,0,1,1.34.2,2,2,0,0,1,.84.6,2.34,2.34,0,0,1,.44,1,6.56,6.56,0,0,1,.12,1.33v3.05h-1.7Zm-.45-1.87a5.25,5.25,0,0,0-.53,0,2.35,2.35,0,0,0-.6.1,1.32,1.32,0,0,0-.5.26.63.63,0,0,0-.2.48.51.51,0,0,0,.28.49,1.18,1.18,0,0,0,.59.17,1.84,1.84,0,0,0,.53-.08,1.55,1.55,0,0,0,.45-.21.92.92,0,0,0,.31-.34,1,1,0,0,0,.12-.5v-.39Z"/><path class="i" d="M404.28,240.59h-1.63v2c0,.16,0,.31,0,.45a1,1,0,0,0,.12.35.54.54,0,0,0,.26.23,1.26,1.26,0,0,0,.48.08l.38,0a.7.7,0,0,0,.37-.14v1.54a3.5,3.5,0,0,1-.64.15l-.66,0a3.33,3.33,0,0,1-.86-.1,1.89,1.89,0,0,1-.69-.31,1.52,1.52,0,0,1-.47-.56,1.94,1.94,0,0,1-.16-.84v-2.85h-1.19v-1.48h1.19v-1.78h1.85v1.78h1.63Z"/><path class="i" d="M409,239.11h1.7v.79h0a1.71,1.71,0,0,1,.29-.33,2.25,2.25,0,0,1,.42-.3,2.2,2.2,0,0,1,.52-.22,2,2,0,0,1,.61-.09,3.14,3.14,0,0,1,1.21.23,2.62,2.62,0,0,1,.93.64,2.88,2.88,0,0,1,.6,1,3.6,3.6,0,0,1,.21,1.25,4,4,0,0,1-.19,1.2,3.35,3.35,0,0,1-.55,1,2.71,2.71,0,0,1-.86.71,2.37,2.37,0,0,1-1.14.26,3.14,3.14,0,0,1-1.08-.18,1.61,1.61,0,0,1-.82-.61h0v3.46H409Zm1.7,3a1.56,1.56,0,0,0,.39,1.1,1.67,1.67,0,0,0,2.19,0,1.56,1.56,0,0,0,.39-1.1,1.54,1.54,0,0,0-.39-1.1,1.64,1.64,0,0,0-2.19,0A1.54,1.54,0,0,0,410.74,242.11Z"/><path class="i" d="M420.41,244.35h0a1.72,1.72,0,0,1-.82.69,2.81,2.81,0,0,1-1.08.21,3.1,3.1,0,0,1-.81-.11,2,2,0,0,1-.68-.36,1.49,1.49,0,0,1-.47-.58,1.69,1.69,0,0,1-.17-.8,1.8,1.8,0,0,1,.19-.87,1.74,1.74,0,0,1,.51-.6,2.89,2.89,0,0,1,.75-.36,5,5,0,0,1,.87-.19c.3,0,.6-.07.9-.08h.84a.94.94,0,0,0-.36-.78,1.27,1.27,0,0,0-.83-.29,1.78,1.78,0,0,0-.83.19,2.42,2.42,0,0,0-.68.52l-1-1a3.36,3.36,0,0,1,1.21-.72,4.34,4.34,0,0,1,1.43-.24,3.9,3.9,0,0,1,1.34.2,2,2,0,0,1,.84.6,2.32,2.32,0,0,1,.43,1,5.88,5.88,0,0,1,.13,1.33v3.05h-1.7Zm-.46-1.87c-.14,0-.32,0-.53,0a2.35,2.35,0,0,0-.6.1,1.28,1.28,0,0,0-.49.26.6.6,0,0,0-.21.48.52.52,0,0,0,.29.49,1.15,1.15,0,0,0,.59.17,1.82,1.82,0,0,0,.52-.08,1.55,1.55,0,0,0,.45-.21,1,1,0,0,0,.32-.34,1,1,0,0,0,.12-.5v-.39Z"/><path class="i" d="M429.56,244.6a3.07,3.07,0,0,1-3.47,3.47,6.87,6.87,0,0,1-1.57-.18,3.58,3.58,0,0,1-1.44-.7l1-1.53a3.84,3.84,0,0,0,.91.57,2.51,2.51,0,0,0,1,.21,1.67,1.67,0,0,0,1.25-.42,1.42,1.42,0,0,0,.4-1.05v-.58h0a1.76,1.76,0,0,1-.8.61,2.52,2.52,0,0,1-.89.18,3.11,3.11,0,0,1-1.21-.23,2.46,2.46,0,0,1-.93-.64,2.88,2.88,0,0,1-.6-1,3.73,3.73,0,0,1,0-2.41,3.32,3.32,0,0,1,.54-1,2.62,2.62,0,0,1,.86-.69,2.41,2.41,0,0,1,1.15-.27,2.73,2.73,0,0,1,.72.09,2.33,2.33,0,0,1,.58.22,2.2,2.2,0,0,1,.45.3,1.71,1.71,0,0,1,.29.33h0v-.79h1.7Zm-4.66-2.53a1.51,1.51,0,0,0,.11.56,1.48,1.48,0,0,0,.31.47,1.67,1.67,0,0,0,.47.33,1.41,1.41,0,0,0,.59.12,1.44,1.44,0,0,0,1.05-.45,1.44,1.44,0,0,0,0-2.06,1.47,1.47,0,0,0-1.64-.33,1.67,1.67,0,0,0-.47.33,1.48,1.48,0,0,0-.31.47A1.51,1.51,0,0,0,424.9,242.07Z"/><path class="i" d="M436.72,244.07a2.91,2.91,0,0,1-1.12.87,3.36,3.36,0,0,1-1.41.31,3.7,3.7,0,0,1-1.3-.22,3.11,3.11,0,0,1-1.06-.63,3.06,3.06,0,0,1-1-2.29,3.05,3.05,0,0,1,.26-1.3,2.85,2.85,0,0,1,.71-1,3,3,0,0,1,1.06-.64,3.7,3.7,0,0,1,1.3-.22,2.94,2.94,0,0,1,1.17.22,2.36,2.36,0,0,1,.88.64,2.67,2.67,0,0,1,.56,1,3.82,3.82,0,0,1,.2,1.3v.58h-4.29a1.42,1.42,0,0,0,.48.84,1.37,1.37,0,0,0,.91.32,1.34,1.34,0,0,0,.77-.21,1.94,1.94,0,0,0,.55-.52Zm-1.57-2.64a1,1,0,0,0-.31-.8,1.06,1.06,0,0,0-.82-.34,1.54,1.54,0,0,0-.55.1,1.6,1.6,0,0,0-.4.25,1.5,1.5,0,0,0-.26.36,1.28,1.28,0,0,0-.1.43Z"/><path class="i" d="M354.23,255.85a1,1,0,0,0-.38-.32,1.09,1.09,0,0,0-.53-.13,1.43,1.43,0,0,0-1.1.42,1.77,1.77,0,0,0,0,2.19,1.43,1.43,0,0,0,1.1.42,1,1,0,0,0,.53-.13,1.7,1.7,0,0,0,.38-.32l1.22,1.28a2.35,2.35,0,0,1-1,.62,3.77,3.77,0,0,1-2.42,0,3.17,3.17,0,0,1-1.06-.64,3,3,0,0,1-.71-1,3.36,3.36,0,0,1,0-2.59,3,3,0,0,1,.71-1A3.17,3.17,0,0,1,352,254a3.77,3.77,0,0,1,2.42,0,2.35,2.35,0,0,1,1,.62Z"/><path class="i" d="M359.88,259.16h0a1.77,1.77,0,0,1-.82.69,2.85,2.85,0,0,1-1.08.21,2.74,2.74,0,0,1-.81-.12,1.88,1.88,0,0,1-.69-.35A1.79,1.79,0,0,1,356,259a1.85,1.85,0,0,1-.17-.8,1.67,1.67,0,0,1,.71-1.47,2.61,2.61,0,0,1,.75-.36,5,5,0,0,1,.87-.19c.3,0,.6-.07.9-.08h.83a1,1,0,0,0-.35-.78,1.24,1.24,0,0,0-.83-.29,1.82,1.82,0,0,0-.84.19,2.37,2.37,0,0,0-.67.52l-1-1a3.45,3.45,0,0,1,1.21-.72,4.34,4.34,0,0,1,1.43-.24,3.86,3.86,0,0,1,1.34.2,2,2,0,0,1,.84.6,2.28,2.28,0,0,1,.44,1,6.49,6.49,0,0,1,.12,1.33v3h-1.7Zm-.46-1.88-.52,0a2.9,2.9,0,0,0-.6.11,1.32,1.32,0,0,0-.5.26.6.6,0,0,0-.2.48.51.51,0,0,0,.28.49,1.16,1.16,0,0,0,.59.16,1.83,1.83,0,0,0,.53-.07,1.55,1.55,0,0,0,.45-.21,1,1,0,0,0,.31-.35,1,1,0,0,0,.12-.49v-.4Z"/><path class="i" d="M362.74,253.92h1.78v.81h0a1.63,1.63,0,0,1,.63-.65,2.39,2.39,0,0,1,.51-.23,2.45,2.45,0,0,1,.62-.08,2.59,2.59,0,0,1,1.13.21,1.73,1.73,0,0,1,.68.6,2.35,2.35,0,0,1,.32.9,6.64,6.64,0,0,1,.09,1.13v3.3h-1.85V257c0-.18,0-.36,0-.54a1.59,1.59,0,0,0-.11-.51.87.87,0,0,0-.29-.39.91.91,0,0,0-.54-.14,1.15,1.15,0,0,0-.59.13.83.83,0,0,0-.33.34,1.57,1.57,0,0,0-.16.49,5.1,5.1,0,0,0,0,.57v3h-1.85Z"/><path class="i" d="M371.23,254.66h-1.58l.92-3.48h1.77Z"/><path class="i" d="M377.34,255.4h-1.63v2a3.19,3.19,0,0,0,0,.45.8.8,0,0,0,.11.35.59.59,0,0,0,.26.23,1.26,1.26,0,0,0,.48.08l.39,0a.6.6,0,0,0,.36-.15v1.55a2.7,2.7,0,0,1-.64.14,4.82,4.82,0,0,1-.65,0,3.41,3.41,0,0,1-.87-.1,2,2,0,0,1-.69-.31,1.48,1.48,0,0,1-.46-.56,1.93,1.93,0,0,1-.17-.84V255.4h-1.18v-1.48h1.18v-1.78h1.85v1.78h1.63Z"/><path class="i" d="M382.1,250.58H384v4h0a1.71,1.71,0,0,1,.82-.61,3.14,3.14,0,0,1,1.08-.18A2.53,2.53,0,0,1,387,254a2.82,2.82,0,0,1,.86.71,3.55,3.55,0,0,1,.54,1,3.68,3.68,0,0,1,.19,1.2,3.56,3.56,0,0,1-.21,1.25,2.78,2.78,0,0,1-.6,1,2.62,2.62,0,0,1-.93.64,3.11,3.11,0,0,1-1.21.23,2,2,0,0,1-.6-.09,2.41,2.41,0,0,1-.95-.52,2.14,2.14,0,0,1-.29-.33h0v.79H382.1Zm1.71,6.33a1.54,1.54,0,0,0,.39,1.1,1.62,1.62,0,0,0,2.18,0,1.73,1.73,0,0,0,0-2.19,1.62,1.62,0,0,0-2.18,0A1.53,1.53,0,0,0,383.81,256.91Z"/><path class="i" d="M395.38,258.88a2.93,2.93,0,0,1-1.12.87,3.29,3.29,0,0,1-1.41.31,3.74,3.74,0,0,1-1.3-.22,3.07,3.07,0,0,1-1.06-.64,2.85,2.85,0,0,1-.71-1,3.36,3.36,0,0,1,0-2.59,2.85,2.85,0,0,1,.71-1,3.07,3.07,0,0,1,1.06-.64,3.74,3.74,0,0,1,1.3-.22A2.94,2.94,0,0,1,394,254a2.47,2.47,0,0,1,.89.64,2.81,2.81,0,0,1,.56,1,4.06,4.06,0,0,1,.2,1.29v.58h-4.3a1.53,1.53,0,0,0,.48.85,1.55,1.55,0,0,0,1.69.11,2.26,2.26,0,0,0,.55-.52Zm-1.57-2.64a1.09,1.09,0,0,0-.3-.81,1.12,1.12,0,0,0-.83-.33,1.27,1.27,0,0,0-.54.1,1.44,1.44,0,0,0-.4.25,1,1,0,0,0-.26.36,1.09,1.09,0,0,0-.11.43Z"/><path class="i" d="M401.08,255.4h-1.22v-1.48h1.22v-1.07a4.73,4.73,0,0,1,.09-.93,2,2,0,0,1,.33-.77,1.69,1.69,0,0,1,.71-.52,3.22,3.22,0,0,1,1.22-.19,5,5,0,0,1,.55,0,4.51,4.51,0,0,1,.53.09l-.08,1.56-.3-.09a1.42,1.42,0,0,0-.31,0,1,1,0,0,0-.66.19,1,1,0,0,0-.23.79v.95h1.37v1.48h-1.37v4.51h-1.85Z"/><path class="i" d="M404.78,256.91a3.2,3.2,0,0,1,.26-1.29,3,3,0,0,1,.71-1,3.17,3.17,0,0,1,1.06-.64,4,4,0,0,1,2.61,0,3.17,3.17,0,0,1,1.06.64,2.85,2.85,0,0,1,.71,1,3.36,3.36,0,0,1,0,2.59,2.85,2.85,0,0,1-.71,1,3.17,3.17,0,0,1-1.06.64,4,4,0,0,1-2.61,0,3.17,3.17,0,0,1-1.06-.64,3,3,0,0,1-.71-1A3.21,3.21,0,0,1,404.78,256.91Zm1.85,0A1.54,1.54,0,0,0,407,258a1.64,1.64,0,0,0,2.19,0,1.73,1.73,0,0,0,0-2.19,1.64,1.64,0,0,0-2.19,0A1.53,1.53,0,0,0,406.63,256.91Z"/><path class="i" d="M418.31,259.91h-1.78v-.81h0a1.92,1.92,0,0,1-.26.34,1.42,1.42,0,0,1-.37.31,2,2,0,0,1-.51.22,2,2,0,0,1-.62.09,2.67,2.67,0,0,1-1.14-.21,1.8,1.8,0,0,1-.68-.6,2.53,2.53,0,0,1-.32-.9,7.9,7.9,0,0,1-.08-1.13v-3.3h1.85v2.93c0,.18,0,.35,0,.54a2,2,0,0,0,.11.51.86.86,0,0,0,.29.38.88.88,0,0,0,.55.15,1.11,1.11,0,0,0,.58-.13.92.92,0,0,0,.34-.34,1.56,1.56,0,0,0,.15-.49,3.48,3.48,0,0,0,0-.57v-3h1.85Z"/><path class="i" d="M419.62,253.92h1.77v.81h0a1.69,1.69,0,0,1,.24-.35,2,2,0,0,1,.39-.3,2.3,2.3,0,0,1,.5-.23,2.45,2.45,0,0,1,.62-.08,2.56,2.56,0,0,1,1.13.21,1.73,1.73,0,0,1,.68.6,2.35,2.35,0,0,1,.32.9,6.64,6.64,0,0,1,.09,1.13v3.3h-1.85V257a4.87,4.87,0,0,0,0-.54,1.59,1.59,0,0,0-.11-.51.93.93,0,0,0-.28-.39,1,1,0,0,0-.55-.14,1.11,1.11,0,0,0-.58.13.86.86,0,0,0-.34.34,1.57,1.57,0,0,0-.16.49,5.17,5.17,0,0,0,0,.57v3h-1.85Z"/><path class="i" d="M433,259.91h-1.7v-.79h0a2.24,2.24,0,0,1-.3.33,1.74,1.74,0,0,1-.42.3,2.2,2.2,0,0,1-.52.22,2.08,2.08,0,0,1-.6.09,3.11,3.11,0,0,1-1.21-.23,2.54,2.54,0,0,1-.93-.64,2.78,2.78,0,0,1-.6-1,3.56,3.56,0,0,1-.21-1.25,3.68,3.68,0,0,1,.19-1.2,3.55,3.55,0,0,1,.54-1,2.82,2.82,0,0,1,.86-.71,2.53,2.53,0,0,1,1.15-.26,3.22,3.22,0,0,1,1.08.18,1.76,1.76,0,0,1,.82.61h0v-4H433Zm-1.7-3a1.53,1.53,0,0,0-.39-1.09,1.62,1.62,0,0,0-2.18,0,1.73,1.73,0,0,0,0,2.19,1.62,1.62,0,0,0,2.18,0A1.54,1.54,0,0,0,431.29,256.91Z"/><path class="i" d="M434.51,258.85a1.12,1.12,0,0,1,.09-.44,1,1,0,0,1,.24-.37,1.13,1.13,0,0,1,.36-.24,1.28,1.28,0,0,1,.89,0,1.13,1.13,0,0,1,.36.24,1,1,0,0,1,.24.37,1.12,1.12,0,0,1,.09.44,1.13,1.13,0,0,1-.09.45.88.88,0,0,1-.24.36,1.15,1.15,0,0,1-.81.33,1.12,1.12,0,0,1-.44-.09,1.13,1.13,0,0,1-.36-.24.88.88,0,0,1-.24-.36A1.13,1.13,0,0,1,434.51,258.85Z"/><path class="j" d="M204.46,579.61v.15c-.06,2.23-.66,5,.35,7.16,1.22,2.54,4.71,3.3,7.59,2.61,3.84-.91,5.83-4.12,6.63-7.26.32-1.24.58-2.49.82-3.76A37.67,37.67,0,0,1,204.46,579.61Z"/><path class="j" d="M358.83,579q-.66,4.28-1.57,8.54A1.29,1.29,0,0,0,358,589c5.67,2.37,11.37-.95,13.85-5.42a24.34,24.34,0,0,0,1.88-4.56A37,37,0,0,1,358.83,579Z"/><path class="j" d="M314.57,580.38a17,17,0,0,1-1.95-.35q-.6,3.75-1.39,7.48a1.25,1.25,0,0,0,.7,1.47c5.67,2.37,11.37-1,13.85-5.41a24.13,24.13,0,0,0,1.81-4.34A31.44,31.44,0,0,1,314.57,580.38Z"/><path class="j" d="M244.12,582.63l-.85-.09c.11,1.1.24,2.21.39,3.31.22,1.61.3,3.51,1.15,5,1.28,2.24,4.14,3,6.85,2.41a8.15,8.15,0,0,0,6.1-5.89,25.62,25.62,0,0,0,.9-6A43.86,43.86,0,0,1,244.12,582.63Z"/><path class="i" d="M348.73,483.17c-1.33-5.62-5.06-10.24-9-14.26-4.2-4.24-9-8-12.53-12.87-4.68-6.37-4.9-13.74-5.6-21.33-.21-2.26-.5-4.53-.87-6.79-2.05-12.15-6.8-23.93-17-31.53a1.87,1.87,0,0,0-2.51.66q-13.14,19.77-27.54,38.64-3.87,5.08-7.85,10.11a2,2,0,0,0,1.18,3.1c2.12,7.68,4.7,15.45,9.48,21.9a29.66,29.66,0,0,0,8.71,7.95c.61.36,1.23.7,1.85,1,3.8,2,7.71,3.69,10.82,6.87a31.69,31.69,0,0,1,5.37,7.55c-2.59,5.85-.19,11.28,3.9,15.56-.65,3-.79,6.6,1.83,7.38a6,6,0,0,0,.33,4.2,10,10,0,0,1,1.34,3.92,14.27,14.27,0,0,0,.49,3.24,13,13,0,0,0,2,3.53c.67,5.12,1.12,10.27,1.32,15.44s.16,10.3-.13,15.45c-.14,2.63.65,11.53-1.75,13-.82.51-1.83.79-2.39,1.58-1,1.37.68,3.61,2.28,3.08a1.43,1.43,0,0,0,0,.29,2.55,2.55,0,0,0,5.06,0,4,4,0,0,0,3.92,1.18,4.07,4.07,0,0,0,2.48-2,4.3,4.3,0,0,0,.37-1,8.27,8.27,0,0,0,.69.77,2.62,2.62,0,0,0,1.3.74,1.51,1.51,0,0,0,.84-.11,1.36,1.36,0,0,0,.79-.82,1.25,1.25,0,0,0,1.29.75,2.72,2.72,0,0,0,1.64-1.25,6,6,0,0,0,1.35-4.16,3.11,3.11,0,0,0-2.94-2.82c2.05-3.74,2.12-9.26,3.19-13.43q6.68-26,13.42-52A122.24,122.24,0,0,0,349,493.67,27.89,27.89,0,0,0,348.73,483.17Z"/><path class="i" d="M236.59,461.65c-2.36-2.91-6.27-4.12-9.65-5.38-4.71-1.73-9.49-3.24-14.32-4.6-5.38-1.52-10.82-2.85-16.27-4.14-4-.95-8.24-2.3-12.44-2-3,.24-5.95,1.49-7.16,4.39-1.41,3.39.42,6.8,2.76,9.29,3.93,18.09,7.83,36.19,11.93,54.25,1.76,7.71,3.88,16.14,10.38,21.25,1,2.93,2.29,5.78,3.05,8.77.26,1,.46,2,.64,3-.06,1.6-.12,3.2-.17,4.8,0,.44-.1.88-.17,1.31-.28,1.65-1.5,2.32-2,3.84a4.91,4.91,0,0,0,1.48,5.19c-.9,1.87-.61,4.11.26,6.32-.06,2.64-.29,5.26-.36,7.89a3,3,0,0,0-3,2A2.65,2.65,0,0,0,203,581a2.4,2.4,0,0,0,3.05-1.64,3,3,0,0,0,5.88-.24,5.67,5.67,0,0,0,4.52,2.24c1.74-.14,3.37-1.8,3-3.51-.08,1.31,1.57,2.12,2.84,1.8A3.43,3.43,0,0,0,221,573c-.74-15.21,5.43-32.17,8.15-47.22q1-5.4,1.81-10.84a156.23,156.23,0,0,0,6.27-27.6q.95-7.05,1.26-14.17C238.62,469.29,239.19,464.85,236.59,461.65Z"/><path class="k" d="M379.46,490.88l-.45-1.11c-3.89-9.59-8.43-19.09-10.38-29.32-1.83-9.61,1.58-18.54.48-27.85-.23-1.89.4-3.27.93-4.94a6.12,6.12,0,0,0,.39-2.28c-.16-2.75-2.21-4.91-4.58-6.25a4.36,4.36,0,0,0,.75-3.19c-.41-2.32-2.43-3.54-4.58-3.89l-.28-.6a7.58,7.58,0,0,0-4-6.78,38.4,38.4,0,0,0-4-4.8A125,125,0,0,0,346.23,389a20.31,20.31,0,0,0-2.35-4.76c-1.16-1.76-2.64-3.33-3.68-5.17-.89-1.57-1-3.49-2.16-4.91a13.81,13.81,0,0,0-3.06-2.25,5.45,5.45,0,0,1-.82-.69c-1.23-1.16-2.07-2.68-3.45-3.7a5,5,0,0,0-4.31-1,9.55,9.55,0,0,0-3.5-6.05,6.53,6.53,0,0,0-5.77-1.13,4.93,4.93,0,0,0-7.78-1.87,4.4,4.4,0,0,0-6,.39,30.34,30.34,0,0,0-3.36.2c-1,.13-2.19.3-3.37.55-3.07.05-6.15.15-9.22.31q-3.13.17-6.3.4a15.52,15.52,0,0,0-5.89-2,3.27,3.27,0,0,0-1.7,0,4.87,4.87,0,0,0-.55.06,5.23,5.23,0,0,0-3.23,1.62,5.49,5.49,0,0,0-.85-1,6.5,6.5,0,0,0-3.69-1.66c-3-.33-5.59,1.4-7.7,3.39l-1,.2a7.92,7.92,0,0,0-10.05,1.42c-.44.48-.77.89-1.11,1.22a4.1,4.1,0,0,1-2.61,1.2c-.59.09-1.15.12-1.71.18a9.29,9.29,0,0,0-2.21.4,17.13,17.13,0,0,0-4.65,2.44c-.43.3-.84.62-1.25,1l-.21.06c-.6.17-1.2.34-1.79.53A5.44,5.44,0,0,0,229.2,367a6.62,6.62,0,0,0-1.71-.57,6.37,6.37,0,0,0,0-4.2,5.37,5.37,0,0,0-.94-1.68,1.09,1.09,0,0,0-.13-.17,3.28,3.28,0,0,0-.31-.34,4.71,4.71,0,0,0,.36-.42,1.09,1.09,0,0,0,.13-.17,6.59,6.59,0,0,0,1.17-2.18,7.25,7.25,0,0,0-.51-5.71,7.52,7.52,0,0,0-1.7-2.1V302.83A37,37,0,0,0,232.52,290c.26-.86.48-1.72.67-2.59,1.61-7.39.38-14.47-2.38-21.52a.14.14,0,0,0,0-.06c-1.62-4.15-3.25-8.58-5.21-12.86v-2.23a7.27,7.27,0,0,0-4.71-6.79c3.59-3,6-7.85,7.43-11.36a41.7,41.7,0,0,0,2.7-10.22,43.52,43.52,0,0,0,.4-5.81c0-.9.21-2.18-.55-2.93a1.84,1.84,0,0,0-1.8-.5l-.25.07a6.57,6.57,0,0,0-2.05,1.21l-.38.31L226,215a57.55,57.55,0,0,0-4.41,3.8,15.83,15.83,0,0,1-1.56,1,25.08,25.08,0,0,0-6.39,4.54,26.71,26.71,0,0,0-1.76,2.07,20.1,20.1,0,0,0-2.79,5,6.28,6.28,0,0,0-.25.73,5.68,5.68,0,0,0-.22.7,12.39,12.39,0,0,0-.35,1.58,14.68,14.68,0,0,0-.18,1.61l-.24-.09c-.28-.11-.57-.22-.86-.31,0,0,0,0,0,0l-.53-.19a40.53,40.53,0,0,0-12.24-2.05,41.39,41.39,0,0,0-14.92,2.52l0-.19c.12-.71.23-1.43.33-2.15.16-1.16.28-2.33.39-3.5.06-.65.11-1.3.16-1.94.2-2.68-1.06-3.79-3.37-5.4a111.28,111.28,0,0,0-18.59-10.33,1.65,1.65,0,0,0-.66-.13,1.81,1.81,0,0,0-.86.24,1,1,0,0,0-.23.18.9.9,0,0,0-.28.76,135.67,135.67,0,0,0,2.47,19.13,54.08,54.08,0,0,0,2.88,9.22,29.89,29.89,0,0,0,2.92,5.93,6.62,6.62,0,0,0-.24.62,51.05,51.05,0,0,0-5.46,13c-1.15,4-2,7.94-2.76,11.54-1.58,7.35-2.69,15.19-.14,22.46l0,.1a28.35,28.35,0,0,0,7.91,11.41V317.7c-1,1.55-2.58,3.17-2.64,5,0,1,.57,1.88.63,2.84.08,1.21-.44,2.34-.23,3.55a3.88,3.88,0,0,0,1.6,2.6,5.85,5.85,0,0,0-.11,3.13,6.16,6.16,0,0,0,.75,1.84c0,3.15,0,6.32-.06,9.49,0,1.45,0,2.89,0,4.34,0,1.71,0,3.41,0,5.11,0,14.71.46,29.42,3.9,43.76.69,2.86,1.48,5.71,2,8.6.09.43.16.86.23,1.3a35.65,35.65,0,0,1,.46,3.86c.47,7.73-2,15.32-2.57,23a49.66,49.66,0,0,0,6.32,28,59.09,59.09,0,0,0,9.2,12.39c3.8,3.71,8.13,6.14,12,4,1.5,1.48,4.11,1.06,6-.28a5.74,5.74,0,0,0,4.74,4c5.27,8.13,10.55,16.86,17.61,23.34-1.31,3.08-1.19,6.76,1.63,8.64a6.48,6.48,0,0,0,2,7.69,7.88,7.88,0,0,0,1,6.49,3.43,3.43,0,0,0,.24.33c.25,1.49.53,3,.85,4.45,1.59,7.44,3.87,16,10.5,20.5a15.46,15.46,0,0,0,1.79,5.69,26.84,26.84,0,0,0,1.39,2.33c-.13,3.66,1.78,11.46.16,14.56a9.12,9.12,0,0,0-1.31,2.63c-.14.94.63,2.07,1.5,1.87a.28.28,0,0,0,.13,0,3.36,3.36,0,0,0,6.57.72,3.39,3.39,0,0,0,5.35-.62,2.56,2.56,0,0,0,3,1.43l.15,0a2.55,2.55,0,0,0,1.38-3.2c.89.35,2,.68,2.71.09s.57-2.14-.1-3-1.64-1.62-2-2.69c-1.88-5.84-.65-13.32.09-19.81.59-5.17,1.47-10.32,2.33-15.47a7.47,7.47,0,0,0,1.41-6.51c.08-.39.17-.77.26-1.15a8.28,8.28,0,0,0,2.9-3.61,8,8,0,0,0,.6-3.34,14.44,14.44,0,0,1,.72-5,11.59,11.59,0,0,0-.12-5.86c.85-3.73,1.71-7.45,2.55-11.18q1-4.44,2-8.9c.59-1,1.17-2.06,1.72-3.07a75.65,75.65,0,0,0,4-8.51q4-1.5,8-3.16c7.29-3,14.43-6.46,21.42-10.13,3.68-1.93,6.53-5.26,9.75-2,2.52,2.57,3.65,11.17,5.43,14.73a72.62,72.62,0,0,0,19.64,24.34c2.82,2.23,5.82,4.28,8.22,7,8.16,9.12,8.52,22.31,9,33.83q.27,6.86-.05,13.71c-.14,3.18.95,9.09-.55,11.91-.72,1.38-2.14,2.26-3,3.54s-.91,3.46.55,4a4.16,4.16,0,0,0,1.12.17,2.25,2.25,0,0,1,.85.24,3.54,3.54,0,0,1,.91,1.08A4.12,4.12,0,0,0,364,584a3,3,0,0,0,2.67-3,4.92,4.92,0,0,0,6.91-1.74,3.88,3.88,0,0,0,.3-.76,3,3,0,1,0,1.37-5.53c1.64-.07,4.23-21.46,4.61-23.2,2.08-9.43,5.21-19.74,5.78-29.34C386.28,510.31,383.18,500.18,379.46,490.88ZM225,510.58a29.53,29.53,0,0,1,1,3.37A3.53,3.53,0,0,1,225,510.58Zm18.33,47.85,0,.28-.12-.25c-.18-.4-.35-.8-.52-1.21l.61.24.56.19A.89.89,0,0,0,243.3,558.43Z"/><path class="j" d="M174.61,269a2.5,2.5,0,0,0-.6-.28,2.34,2.34,0,0,0-2.59.12,2.82,2.82,0,0,0-1,1.12s0,0,0,0a2.94,2.94,0,0,0,2.41,4.24,3.05,3.05,0,0,0,3-1.69A2.92,2.92,0,0,0,174.61,269Z"/><path class="g" d="M173,269.19a.85.85,0,0,0-.91.33.63.63,0,0,0,0,.71h0a.41.41,0,0,0,0,.11,1,1,0,0,0,1,1.06.53.53,0,0,0,.51-.39C173.8,270.39,173.85,269.4,173,269.19Z"/><path class="j" d="M214.07,268.61a2.69,2.69,0,0,0-3.26,1.23,2.72,2.72,0,0,0-.17,3.37,1.06,1.06,0,0,0,.76.78l.17,0a2.33,2.33,0,0,0,2.54-.39,2.81,2.81,0,0,0,0-5Zm-.9,2.88a.44.44,0,0,1-.13.14.76.76,0,0,1-.1-.47l.05-.09,0,0a.7.7,0,0,1,.2.18A.53.53,0,0,1,213.17,271.49Z"/><path class="g" d="M214.31,269.48a.79.79,0,0,0-.81-.14h0a.9.9,0,0,0-.7.88.83.83,0,0,0,.24.88.78.78,0,0,0,.18.11.69.69,0,0,0,.67.15,1.23,1.23,0,0,0,.43-1.88Z"/><path class="i" d="M219.25,302.19c-2.27,2.41-4.64,5.16-7.6,6.57-3.21,1.53-5.4,3.92-9,4.94s-8.69,2.77-12.42,1.69c-1.84-.53-3.14-1.92-4.81-2.75-2.27-1.13-5.76-1.37-5.87-4.75a1,1,0,0,0-1-1c-4.21.1-7.5-5.85-9.42-9.84-.07-.16-.15-.31-.21-.46-.22-.45-.42-.87-.59-1.25,0-.05-.1,0-.09,0,.1.32.21.65.33,1s.27.83.42,1.26c1.07,3,2.6,6.59,4.89,8.86.37,1.28.71,2.56,1.07,3.83a12.94,12.94,0,0,0,1.68,4c1.5,2,4.64,2.76,7,3.58a7.66,7.66,0,0,0,8,6,11.38,11.38,0,0,0,2.62-.75c1.94-.63,3.16-.1,5-.41a3.78,3.78,0,0,0,3.08-2.17,5.1,5.1,0,0,0,5.16-4.47c1.3-.22,2.29-1.37,3.22-2.5,1.71-2.09,3.39-4.19,5-6.36,1.35-1.5,2.7-3,4-4.55C220.17,302.38,219.62,301.8,219.25,302.19Z"/><path class="i" d="M204.55,274.87a.23.23,0,0,0-.45,0c-.28,3.61.13,8.36-1.75,11.55a10,10,0,0,1-7.63,5.24c-8.49.67-10.79-9.2-10.45-15.75a0,0,0,0,0-.08,0c-2.14,7.89.45,18.13,10.17,18.42a10.84,10.84,0,0,0,9.32-5.06C206.08,285.14,204.84,279.34,204.55,274.87Z"/><rect class="g" x="184.03" y="263.34" width="21.2" height="27.57" rx="9.34"/><path class="j" d="M195.65,274.51a2.39,2.39,0,0,1-1-.46,6.06,6.06,0,0,1-.36-.67,3.7,3.7,0,0,0-1.12-1.18c-.43-.32-.8-.72-1.25-1a3.15,3.15,0,0,1-.84-.62,4.86,4.86,0,0,1-.43-.77.36.36,0,0,0-.67.18c.06.72.22,1.45.3,2.15a3.89,3.89,0,0,0,1.19,2,2.71,2.71,0,0,0,2.14.91,8.59,8.59,0,0,1,1-.14c.33,0,.65.1,1,.12S195.92,274.6,195.65,274.51Z"/><path class="j" d="M200.65,269.56a.16.16,0,0,0-.29-.08c-.7.95-1.75,1.54-2.33,2.57-.43.78-1.4,1.56-1.54,2.45a.08.08,0,0,0,.06.14h0c1,.46,2.35-.57,3.07-1.17C200.8,272.5,200.84,271,200.65,269.56Z"/><path class="l" d="M202.86,279.86c-1.53,1.77-3.19,1.29-5.13.47a3.25,3.25,0,0,0-1.53-.39c.1-1.7-.06-3.45-.09-5.14a.23.23,0,0,0-.45,0c0,1.75-.19,3.57-.07,5.32a12,12,0,0,0-1,.74c-2.65,1.77-5.78.85-6.74-2.3a.1.1,0,0,0-.19.05c.81,3.54,4.11,4.52,7.13,3,.53-.28.56-.65,1-.81a.28.28,0,0,0,.32-.07,3,3,0,0,1,.72,0c.63.07,1.29.71,1.87,1a3.85,3.85,0,0,0,2,.44,3,3,0,0,0,2.57-2C203.38,279.88,203,279.66,202.86,279.86Z"/><path class="a" d="M172.82,233.88a12.76,12.76,0,0,0-1.13-2.95l-.06-.11A16.41,16.41,0,0,0,170,228.4c-.12-.16-.25-.33-.39-.49-.67-.83-1.4-1.63-2.14-2.42L166.06,224c-2.56-2.66-5.05-5.38-7.64-8-.39-.4-1.16,0-1,.51,1.49,4.22,2.44,8.53,3.59,12.83s2.23,9,4.27,13a2.34,2.34,0,0,0,2.42,1.48,4.45,4.45,0,0,0,3.3-2.9,6.78,6.78,0,0,0,1.84-3.15,6.69,6.69,0,0,0,.22-2.05A8.13,8.13,0,0,0,172.82,233.88Z"/><path class="a" d="M227.83,221.92a67.05,67.05,0,0,0-8,5.19c-2.71,2.16-5,4.67-5.92,7.61l-.09.05a.8.8,0,0,0-.28.27c-2,3.29,1,5.39,4.28,5.51h.67l.32,0a6.64,6.64,0,0,0,2.89-.91,6.82,6.82,0,0,0,1.08-.82l.25-.24a15.56,15.56,0,0,0,3.05-5.33c0-.09.08-.19.11-.28A56.26,56.26,0,0,0,229,222.76.82.82,0,0,0,227.83,221.92Z"/><path class="k" d="M174.52,237.78c-.46-1-1.16-2.47-2.63-2.44a1.94,1.94,0,0,0-1.67.9,3.65,3.65,0,0,0-.71-.09.9.9,0,0,0-.86.59,3.82,3.82,0,0,0,.63,3.08,1.84,1.84,0,0,0-.29,2,2.5,2.5,0,0,0-.34.39c-1.41.81-1.27,3.17.64,2.92a.28.28,0,0,0,.19-.41h0c.65.06,1.23-.5.85-1.11a12.42,12.42,0,0,0,2.14-2.05,2.3,2.3,0,0,0,.1-.63.81.81,0,0,0,.26-1.09,2.36,2.36,0,0,1-.2-.64,5,5,0,0,1,.12-.53,1.25,1.25,0,0,0,1.45-.6C174.35,238.08,174.59,238,174.52,237.78Z"/><path class="k" d="M219.77,223.79c-.46-.36-1.26-.13-1.25.47s.06,1.46-.78,1.76-1.32,1.24-.54,1.81c.31.68.3,1.13,0,1.37,0-.11.06-.23.07-.35.05-.42-.61-.62-.91-.34a6.77,6.77,0,0,0-1.35,2.16l-.42.85a.42.42,0,0,0-.3.59l-.3.61-.6.75c-.07-.27-.49-.2-.51.06a1.48,1.48,0,1,0,2.89-.56,2.26,2.26,0,0,0,2.22-1.79,2.62,2.62,0,0,0,1.72-3.91C220.71,226.29,221,224.78,219.77,223.79Z"/><path class="k" d="M226,234.86a3,3,0,0,0-2.77,1.67,3.27,3.27,0,0,1-.88,1.12,5.61,5.61,0,0,0-1.42,1.66.37.37,0,0,0,0,.11c-.79-.09-1.81.25-1.92,1.13-.25,2,2.11.83,2.84.31.5-.36,1.13-.84,1-1.47l0,0a6,6,0,0,0,1.73-1.32,6.9,6.9,0,0,1,.91-1.32c.38-.35.78-.53,1-1A.59.59,0,0,0,226,234.86Z"/><path class="i" d="M172.19,224.73A32.07,32.07,0,0,1,176.24,238a27.64,27.64,0,0,0,3.06-2.32c.44-2.51.69-5.08.88-7.59.2-2.68-1.06-3.79-3.37-5.4a111.28,111.28,0,0,0-18.59-10.33,1.67,1.67,0,0,0-1.75.29,24.82,24.82,0,0,0,4.95,2.36A23.58,23.58,0,0,1,172.19,224.73Z"/><path class="i" d="M210.37,238.19c.93,0,1.11-1.14,1.09-2-.1-4.36,3.51-8,7.23-10.86s7.95-5.44,9.95-9.41c.48-.94.84-1.92,1.29-2.85-1.39-.31-3,1.13-3.91,1.87a57.55,57.55,0,0,0-4.41,3.8,15.83,15.83,0,0,1-1.56,1,25.08,25.08,0,0,0-6.39,4.54c-3.09,3.23-5.33,7.41-5.55,11.71l-.24-.09a16.62,16.62,0,0,0,1.55,1.7A1.57,1.57,0,0,0,210.37,238.19Z"/><path class="i" d="M215,246.31c-.06-.15-.31-.24-.4-.05-.23.48-.31.88-1,1a.72.72,0,0,0-.43,1.05c.6,1.21-.87,1.19-1.26,2s.57,2.33-1.47,1.94a.17.17,0,0,0-.09.33,1.54,1.54,0,0,0,1.53-.32c.52-.49.31-1,1.05-1.32s1.24-.47,1.59-1.19a2.14,2.14,0,0,0,.12-1.66A1.73,1.73,0,0,0,215,246.31Z"/><path class="i" d="M217.44,254.64c-.05-.09-.17,0-.16.07.14.69-.9,1.5-1.49,1-.24-.22-.6.14-.35.35C216.33,256.82,218,255.8,217.44,254.64Z"/><path class="i" d="M164.66,275.66a1.61,1.61,0,0,0-1.23,1.24c-.12.41,0,.9-.06,1.25a4.66,4.66,0,0,1-.72,1.17,6.12,6.12,0,0,0-.65,6.41.37.37,0,0,0,.68-.18c.17-2.48.32-4.74,1.87-6.79a.56.56,0,0,0,0-.57,3.05,3.05,0,0,1,.31-2.32A.17.17,0,0,0,164.66,275.66Z"/><path class="i" d="M188.48,372.82a15.32,15.32,0,0,0-1.59,6.62.24.24,0,0,0,.47.06c.54-2.15,1.21-4.24,1.85-6.37A.4.4,0,0,0,188.48,372.82Z"/><path class="i" d="M189.6,377.55a24.23,24.23,0,0,0-.87,4.6c0,.14.22.22.29.08a25.87,25.87,0,0,0,1.08-4.54C190.17,377.36,189.67,377.22,189.6,377.55Z"/><path class="i" d="M191.62,379.13a.25.25,0,0,0-.5,0,21.24,21.24,0,0,0,.06,4,.2.2,0,0,0,.38,0A21.24,21.24,0,0,0,191.62,379.13Z"/><path class="i" d="M195,382.79a.28.28,0,0,0,0,.56A.28.28,0,0,0,195,382.79Z"/><path class="i" d="M214,361.21c-.33-1.23-.78-2.43-1.19-3.64-.11-.3-.59-.17-.48.14.41,1.2.79,2.43,1.28,3.61C213.69,361.55,214.05,361.47,214,361.21Z"/><path class="i" d="M215.67,358.54a2.16,2.16,0,0,0-.85-.82c-.32-.17-.61.31-.29.49a1.47,1.47,0,0,1,.62.64c.13.23.11.58.32.76a.24.24,0,0,0,.32,0C216.05,359.31,215.84,358.84,215.67,358.54Z"/><path class="i" d="M217.42,354.2l-.78-1.85c-.24-.56-1.07-.17-.76.32l1.08,1.72C217.1,354.62,217.53,354.47,217.42,354.2Z"/><path class="i" d="M331.11,421.72c-.23-.61-1.13-.23-.82.34a8.9,8.9,0,0,1,.54,1.63.15.15,0,0,0,.28,0A2.32,2.32,0,0,0,331.11,421.72Z"/><path class="i" d="M330.72,426.38a26.23,26.23,0,0,1-2,6.64c0,.13.14.2.22.09a14.76,14.76,0,0,0,2.25-6.73C331.28,426,330.77,426.05,330.72,426.38Z"/><path class="i" d="M329.86,436.55a22.8,22.8,0,0,1-2.52,4.66c-.31.4.19.94.57.57a7.27,7.27,0,0,0,2.44-5.1C330.35,436.43,330,436.3,329.86,436.55Z"/><path class="i" d="M332.91,436.63a19.18,19.18,0,0,1-2.55,4.4c-.25.37.29.74.6.46a7.18,7.18,0,0,0,2.16-4.83C333.13,436.53,333,436.52,332.91,436.63Z"/><path class="i" d="M335.65,437.17a12.53,12.53,0,0,1-2.74,3.11c-.4.27,0,.93.38.65a6.14,6.14,0,0,0,2.79-3.58A.24.24,0,0,0,335.65,437.17Z"/><path class="i" d="M364.67,427.17c-.09-.06-.23.07-.16.16a7.54,7.54,0,0,1,1.34,3.65c0,.26.41.22.48,0A3.57,3.57,0,0,0,364.67,427.17Z"/><path class="i" d="M366.73,427c-.43-.49-1.11.22-.71.7a4.18,4.18,0,0,1,.61,1,3,3,0,0,0,.5,1,.36.36,0,0,0,.59-.16C368,428.63,367.26,427.58,366.73,427Z"/><path class="i" d="M368.58,427.49a13.73,13.73,0,0,0-1.09-2.29.52.52,0,0,0-.9.52,13.12,13.12,0,0,0,1.42,2.1A.34.34,0,0,0,368.58,427.49Z"/><path class="i" d="M369.45,426c-.28-1-.65-2.06-1-3.09a.54.54,0,1,0-1,.42c.46,1,.89,2,1.41,2.92A.32.32,0,0,0,369.45,426Z"/><path class="i" d="M236.36,389.26a36.08,36.08,0,0,0-2.88-3.18.45.45,0,0,0-.63.64A33.45,33.45,0,0,0,236,389.6.24.24,0,0,0,236.36,389.26Z"/><path class="i" d="M238.5,385.94a11,11,0,0,0-1.78-1.39A17.54,17.54,0,0,1,235,383a.46.46,0,0,0-.65.65,19.19,19.19,0,0,0,1.79,1.59,5.53,5.53,0,0,0,2,1.22A.33.33,0,0,0,238.5,385.94Z"/><path class="i" d="M237.29,382.89l-.84-.68c-.42-.35-.9.33-.44.57l1,.52C237.22,383.43,237.52,383.08,237.29,382.89Z"/><path class="i" d="M239.14,380.82c-.14-.34-.29-.67-.44-1-.25-.56-1.19,0-.71.54l.74.77C239,381.36,239.25,381.07,239.14,380.82Z"/><path class="i" d="M231.17,378.37a3.73,3.73,0,0,1-.21.67c-.26.63-.7,1.18-.91,1.83-.43,1.31.12,3-.81,4s-1.81,1.94-1.22,3.6a1.92,1.92,0,0,1,.19.81c0,.28-.32.55-.58.43a.63.63,0,0,1-.23-.23c-.72-1.14-.32-2.63-.49-4s.26-3.4-.4-4.52a1,1,0,0,1-.2-.52c0-.49.69-.56,1.16-.69a1.73,1.73,0,0,0,1.22-1.77,1.71,1.71,0,0,0-1.53-1.5,1.57,1.57,0,0,0,.18-2.24,2.29,2.29,0,0,0-2.34-.57.84.84,0,0,1-.56,0,.53.53,0,0,1-.14-.72,4.08,4.08,0,0,1,.54-.63c.93-1.18-.14-2.79.12-4.08s1.25-2.61,1.6-3.94a4.73,4.73,0,0,0-.47-4.08,7.33,7.33,0,0,1,1.62,2.63c.08.31.2,3.61-.22,3.53a6.62,6.62,0,0,1,1.71.57,19.52,19.52,0,0,1-.19,5.21C230.39,373.66,231.62,376.25,231.17,378.37Z"/><path class="i" d="M187.9,433.25a16.49,16.49,0,0,1-7.94-9.69,1.15,1.15,0,0,0-1.39-.79c-3.62,1.38-4.48-3.41-4.89-5.81a12.83,12.83,0,0,0-1.74-5.2c-2.37-3.59-4.67-7.59-4.6-12,0-.09-.14-.09-.15,0a15.81,15.81,0,0,0,1.62,6.94,34.31,34.31,0,0,1,2.84,9.61c.5,3.62,1.74,9.86,6.5,9a12.72,12.72,0,0,0,9.63,8.3C187.94,433.56,188.06,433.34,187.9,433.25Z"/><path class="i" d="M200.59,437.86c-.85-.23-5.58-.28-4.45-2,.4-.61-.58-1.18-1-.57-.92,1.37.33,2.65,1.59,3.19a8,8,0,0,0,2.43.4,3,3,0,0,1,2.5,1.39.4.4,0,0,0,.73-.09C202.9,438.92,201.59,438.14,200.59,437.86Z"/><path class="m" d="M241.9,446.87a24.51,24.51,0,0,1,.54-7c.2-.93-1.21-1.33-1.43-.4-.95,4.08-1.65,10.14.86,13.79a.53.53,0,0,0,1-.27C242.82,450.93,242.06,449,241.9,446.87Z"/><path class="m" d="M246.75,452.88a29.61,29.61,0,0,1-.64-7.21c0-.56-.81-.54-.86,0a18.2,18.2,0,0,0,.64,7.45A.45.45,0,0,0,246.75,452.88Z"/><path class="m" d="M249,446.16a.71.71,0,0,0-1.36.38c.59,2.39.89,5.29,2.17,7.41a.49.49,0,0,0,.91-.24C250.76,451.22,249.6,448.54,249,446.16Z"/><path class="m" d="M344,448.23a53.87,53.87,0,0,1-1.35-5.61,28.69,28.69,0,0,1,0-6.35c0-.78-1.07-.86-1.3-.18a14.07,14.07,0,0,0,1.92,12.44C343.58,448.86,344.17,448.69,344,448.23Z"/><path class="m" d="M347.08,439.46a.62.62,0,0,0-1.2.34c.46,2.21.74,4.83,2,6.78a.43.43,0,0,0,.8-.21C348.76,444.06,347.74,441.63,347.08,439.46Z"/><path class="m" d="M351.57,446.18a14.62,14.62,0,0,1-1.05-5.85c.08-1.07-1.65-1.08-1.68,0a10.1,10.1,0,0,0,1.62,6.32C350.84,447.15,351.8,446.89,351.57,446.18Z"/><path class="m" d="M377.82,510.37a12.21,12.21,0,0,1-.39-4c.08-1.37-2.13-1.39-2.15,0,0,2.55.43,6.3,2.74,7.83a.54.54,0,0,0,.82-.47A23.11,23.11,0,0,0,377.82,510.37Z"/><path class="m" d="M382.83,512.89a42.89,42.89,0,0,1-1.4-5.23,1.07,1.07,0,1,0-2.11.29,9.72,9.72,0,0,0,2.5,5.53A.61.61,0,0,0,382.83,512.89Z"/><path class="m" d="M385.62,510.16l-.48-2.05c-.26-1.13-2-.52-1.53.65.28.63.56,1.26.83,1.9S385.78,510.84,385.62,510.16Z"/><path class="m" d="M165.24,343.53c-.05.15-.08.29-.12.44a17.92,17.92,0,0,1-.87-4.51c.05-1.92,1.19-3.91.81-5.76a.46.46,0,0,0-.66-.27c-2.05,1-2.31,4.37-2.35,6.42-.05,2.28.24,5.22,2.16,6.69a.66.66,0,0,0,.26.11c-.2,1-.39,1.94-.58,2.92a24.5,24.5,0,0,0-.75,5.44c0,.51.82.84,1.06.28,1.48-3.39,2-7.91,2.26-11.59C166.52,343,165.43,342.88,165.24,343.53Z"/><path class="m" d="M166.37,347.49c-.74,3.78-1.81,7.64-2,11.48,0,.57.79.63,1,.13,1.18-3.61,1.59-7.54,2.27-11.27C167.71,347,166.52,346.7,166.37,347.49Z"/><path class="m" d="M166.33,357.79a.55.55,0,0,0,0,1.09A.55.55,0,0,0,166.33,357.79Z"/><path class="m" d="M226.58,327.4c-.53-1.53-.86-3.12-1.41-4.64a1,1,0,0,0-1.92.26,18.07,18.07,0,0,0,1.09,5.32c.48,1.45,1,3,2.36,3.85a.62.62,0,0,0,.91-.53C227.81,330.18,227.05,328.78,226.58,327.4Z"/><path class="m" d="M226.57,321.15a6.75,6.75,0,0,0-3.16-2.86c-.49-.22-1.15.43-.64.83a10.07,10.07,0,0,1,2.47,2.81c.48.87.55,2.21,1.36,2.81a.45.45,0,0,0,.55-.07C227.91,323.69,227.12,322.1,226.57,321.15Z"/><path class="m" d="M226.14,313.55l-1-2.33c-.5-1.11-2.23-.14-1.65,1,.36.71.73,1.42,1.1,2.13a5.65,5.65,0,0,0,1.17,1.91.71.71,0,0,0,1.2-.49A5.65,5.65,0,0,0,226.14,313.55Z"/><path class="m" d="M225.67,306.9a.1.1,0,0,0,0,.2A.1.1,0,0,0,225.67,306.9Z"/><path class="m" d="M155.31,290.09a13.26,13.26,0,0,1-.34-6.47c.6-2.17,2.16-3.05,2.9-5,.95-2.5.93-6.18,1.15-8.71.35-4.14,0-7.25,1.77-11.3.13-.3-.3-.56-.44-.26-1.91,4-4.95,7.72-5.8,12.15a86.3,86.3,0,0,0-1.37,12.19c-.32,6.91,1.12,13.07,7.12,17.13.32.22.66-.25.41-.52A21.34,21.34,0,0,1,155.31,290.09Z"/><path class="m" d="M228.09,260.74c-.07-.13-.27,0-.2.12,3.41,6.17,2.62,12.67,2.88,19.38a34.66,34.66,0,0,1,.27,3.65c-.12,1.49-1.08,2.38-1.49,3.69-.7,2.23-.07,7-2.14,8.15-.51.29-.06,1,.46.78,2.67-1.27,2.61-4,4.36-6.16,2-2.46,3.34-3.67,3.34-7.07C235.55,275.41,231.9,267.4,228.09,260.74Z"/><path class="m" d="M172.86,231.9c-.29-.31-.68-.5-1-.79-.64-.59-.1-1.09-.38-1.69s-1.11-.93-1.36-1.64a5.54,5.54,0,0,1-.19-1.22,4.53,4.53,0,0,0-.6-1.72,2.35,2.35,0,0,0-1.55-1.21,1.21,1.21,0,0,0-1.42,1.07c0,1.1,1,1.53.74,2.75-.2,1-.91,1.63.25,2.48,1.64,1.21-1.25,3.7.67,5.37a3.67,3.67,0,0,0,2.7.52.59.59,0,0,1,.35.05c.24.14.18.5.17.78a1.26,1.26,0,0,0,.71,1.13c2.52,1.21,1.7-4.05,1.34-5.06a2.36,2.36,0,0,0-.38-.74Z"/><path class="m" d="M213.66,231.55c.36-.23.79-.31,1.17-.51.77-.4.37-1,.8-1.53s1.31-.61,1.74-1.23a6.36,6.36,0,0,0,.5-1.13,4.57,4.57,0,0,1,1-1.5,2.38,2.38,0,0,1,1.81-.77,1.23,1.23,0,0,1,1.1,1.41c-.31,1.06-1.36,1.22-1.44,2.46-.06,1,.45,1.81-.88,2.33-1.91.74.24,3.89-2.05,5-.55.26-4.84-.63-2.82,1.18.23.21.55.35.64.65s-.28.86-.1,1.24c.09.17.28.28.39.44a.69.69,0,0,1-.35,1,1.33,1.33,0,0,1-1.1-.05c-3-1.29-3-7.06-.52-8.89Z"/><path class="m" d="M168.42,296.39a3.26,3.26,0,0,1-1.88-.17c-1.27-.66-1.12-2.33-1-3.54a10.84,10.84,0,0,0-.26-5.4.8.8,0,0,0-1.55.43c.67,3.22-2.15,6.83.32,9.81,1.26,1.53,4.38,2.27,5.11-.14A.79.79,0,0,0,168.42,296.39Z"/><path class="m" d="M227.35,278.64a.9.9,0,0,0-1.21-.31c-1.62,1-1.76,2.92-2.13,4.71a26.25,26.25,0,0,0-.53,3.07c0,.41-.1,5.12-.92,4.46-.6-.48-1.41.28-.86.86,1.64,1.7,3-1.08,3.53-2.31a28.61,28.61,0,0,0,2-5.65C227.65,281.82,228.3,280.17,227.35,278.64Z"/><path class="m" d="M240.45,544.68c-2.56-5.75-6.28-12.53-5.77-19,0-.48-.62-.48-.77-.11-2.41,5.76-2.65,19.1,5.39,20.61A1,1,0,0,0,240.45,544.68Z"/><path class="m" d="M242.62,540a10.77,10.77,0,0,1,0-3.4c.19-1.21-1.64-1.73-1.85-.51-.32,1.93-.7,5.54,1.11,6.85a.67.67,0,0,0,1-.39A5.86,5.86,0,0,0,242.62,540Z"/><path class="m" d="M247,542.23a28,28,0,0,1-.6-3.29c-.06-.37-.58-.3-.68,0-.64,1.95-.52,5.44,1.36,6.72a.53.53,0,0,0,.79-.45A13,13,0,0,0,247,542.23Z"/><path class="m" d="M251.55,540.85c-.13-.47-.25-.94-.37-1.42-.33-1.29-2.43-.35-1.47.86l.89,1.11C251,541.87,251.68,541.36,251.55,540.85Z"/><path class="m" d="M366.56,534c-1.31,3.4-2.53,10,1,12.53a.9.9,0,0,0,1.32-.53c.38-1.72-.35-3.43-.51-5.15a16.15,16.15,0,0,1,.63-6.18C369.48,533.12,367.13,532.54,366.56,534Z"/><path class="m" d="M372.42,540.74l-.45-2.68c-.22-1.29-2.16-.73-2,.54l.39,2.51a4.39,4.39,0,0,0,.94,2.11.48.48,0,0,0,.86-.11A4.66,4.66,0,0,0,372.42,540.74Z"/><path class="m" d="M374.86,542.72a3.1,3.1,0,0,1-.37-2.16c.29-1-1.35-1.46-1.58-.44a3.28,3.28,0,0,0,.83,3.25C374.19,543.72,375.14,543.42,374.86,542.72Z"/><path class="n" d="M334.16,371.2c-1.23-1.16-2.07-2.68-3.45-3.7a5,5,0,0,0-4.31-1,9.55,9.55,0,0,0-3.5-6.05,6.53,6.53,0,0,0-5.77-1.13,4.93,4.93,0,0,0-7.78-1.87,4.4,4.4,0,0,0-6,.39,30.34,30.34,0,0,0-3.36.2c-1,.13-2.19.3-3.37.55-3.07.05-6.15.15-9.22.31q-3.13.17-6.3.4a15.52,15.52,0,0,0-5.89-2,3.27,3.27,0,0,0-1.7,0,4.87,4.87,0,0,0-.55.06l-4.08.61c-1.71.26-3.42.51-5.12.78A162.52,162.52,0,0,0,247.58,362l-1.39.37c-.27.08-.54.15-.8.24q-2.05.58-4.08,1.29l-.24.09-.69.25a64.54,64.54,0,0,0-6.17,2.59c-.5.24-1,.48-1.5.74a2.51,2.51,0,0,0,0,.27c.69,5.18,1.52,10.39,2.6,15.53h0c.1.51.21,1,.32,1.52,2.43,11,6.09,21.57,12.3,30.85a49.75,49.75,0,0,0,25.71,20,54.36,54.36,0,0,0,29.65,1c6.5-1.49,12.61-4.25,17.36-8.81A27.21,27.21,0,0,0,324,424.2a37.82,37.82,0,0,0,3.72-6.32,48.44,48.44,0,0,0,2-4.83,95,95,0,0,0,3.78-15.91C334.79,389.05,336.47,379.37,334.16,371.2Z"/><path class="o" d="M331.69,367.22a20.4,20.4,0,0,0-4.88-7.37,24.33,24.33,0,0,0-3.49-2.82,25.36,25.36,0,0,0-2.56-1.52,28.77,28.77,0,0,0-3.64-1.61c-.81-.29-1.62-.54-2.44-.75a52.53,52.53,0,0,0-15.37-1.54c-8.82.29-17.73,2.12-26.14,3.45-3.74.6-7.48,1.13-11.19,1.71A159.73,159.73,0,0,0,245.76,360l-1.39.37c-1.64.46-3.27,1-4.88,1.53l-.93.34a68.66,68.66,0,0,0-7.67,3.33c2.25,16.86,5.81,34,15.26,48.17,12.67,18.91,33.58,26.07,55.36,21.05,8.11-1.88,15.62-5.71,20.63-12.54,5.69-7.77,7.94-17.72,9.48-27.05C333.08,386.38,334.93,375.77,331.69,367.22Z"/><path class="p" d="M320.94,372.86c0,8-.5,15.94-3.26,23.5-4.4,12-14.59,22.91-27.94,24.16-14.71,1.39-25.26-11-33.13-21.72s-15.08-24.74-12.24-38.48l1.39-.37c-.51,13.2,5.53,24.78,13.41,35.36,7.19,9.66,17.39,22.28,30.93,20.2,25.81-4,28.63-39.24,27-61.61a28.77,28.77,0,0,1,3.64,1.61C321.38,361.27,320.94,367.36,320.94,372.86Z"/><path class="p" d="M236.33,372.86a1.7,1.7,0,0,0,0,3.39A1.7,1.7,0,0,0,236.33,372.86Z"/><path class="q" d="M238.59,386.15a1.74,1.74,0,0,0,0,3.48A1.74,1.74,0,0,0,238.59,386.15Z"/><path class="p" d="M243.67,398.07a1.82,1.82,0,1,0,0,3.63,1.82,1.82,0,0,0,0-3.63Z"/><path class="q" d="M250.62,410.57s0,0,0,0a.84.84,0,0,1,.06.14C250.74,410.87,250.72,410.81,250.62,410.57Z"/><path class="q" d="M250.63,410.61a1.71,1.71,0,0,0-.39-.63,1.75,1.75,0,1,0-.77,2.94,1.83,1.83,0,0,0,1.22-1.23c.05-.12,0-.06-.07.19a1.58,1.58,0,0,0,.16-.35C250.88,411.14,250.72,410.94,250.63,410.61Z"/><path class="p" d="M257.18,418.07,257,418a1.93,1.93,0,0,0-2.62,2.62l.11.15a1.95,1.95,0,1,0,2.66-2.67Z"/><path class="q" d="M266.79,426.16a1.82,1.82,0,1,0-.92,2.93,2.17,2.17,0,0,0,1.56-1.42A1.26,1.26,0,0,0,266.79,426.16Z"/><path class="p" d="M278.54,430.86a1.91,1.91,0,0,0-2-1.16,1.55,1.55,0,0,0-1.76,1.72,2,2,0,0,0,.93,1.91,2,2,0,0,0,2.8-2.47Z"/><path class="q" d="M290.64,431.58a2.39,2.39,0,0,0-2.22-.45,2.17,2.17,0,1,0,2.67,2.67A2.39,2.39,0,0,0,290.64,431.58Z"/><path class="p" d="M304.54,430.61c0-.12-.07-.24-.1-.36a1.64,1.64,0,0,0-1.14-1.14,3,3,0,0,0-1.57-.09,2.29,2.29,0,1,0,1.21,4.41A2.33,2.33,0,0,0,304.54,430.61Z"/><path class="q" d="M315.67,422.31c-2.89,0-2.9,4.49,0,4.49S318.56,422.31,315.67,422.31Z"/><path class="p" d="M321.93,413.68a1.94,1.94,0,1,0,1.94,1.94A2,2,0,0,0,321.93,413.68Z"/><path class="q" d="M326,403.81a1.86,1.86,0,1,0,1.86,1.86A1.9,1.9,0,0,0,326,403.81Z"/><path class="p" d="M328.33,390.27c-2.51,0-2.51,3.9,0,3.9A2,2,0,0,0,328.33,390.27Z"/><path class="q" d="M329.92,377.8c-2.69,0-2.69,4.18,0,4.18S332.61,377.8,329.92,377.8Z"/><path class="p" d="M329.67,366.07a2.49,2.49,0,1,0,2.48,2.49A2.51,2.51,0,0,0,329.67,366.07Z"/><path class="h" d="M258.18,365.76a11.08,11.08,0,0,1-7-1.79.93.93,0,0,0-1.38.79,33.76,33.76,0,0,0,1.64,9.36.66.66,0,0,0,.5.45c.09.48.18.95.25,1.42.14.81,1.21.74,1.59.2a49,49,0,0,0,5.15-9.08C259.21,366.54,258.93,365.7,258.18,365.76Z"/><path class="q" d="M267.27,384.41l-4.23,1a.57.57,0,0,0-.31,0l-.26.11-2.49.6a5.32,5.32,0,0,1-1.77-.29c-.76-.26-1.25.75-.75,1.29a37.92,37.92,0,0,1,6,8.48.83.83,0,0,0,1.51-.2c1.12-3.34,2.21-6.7,3.29-10.05A.8.8,0,0,0,267.27,384.41Z"/><path class="h" d="M279.88,398c-.09-.61-.82-.72-1.27-.52-2.84,1.26-5.68,2.5-8.51,3.78a1,1,0,0,0-.19,1.47A20.15,20.15,0,0,0,275.6,407a22.94,22.94,0,0,0,4.11,2,.75.75,0,0,0,.94-.71A61.66,61.66,0,0,0,279.88,398Z"/><path class="q" d="M298.61,407.41c-1.31-3.1-2.6-6.21-3.93-9.3a.9.9,0,0,0-1.55,0A53.55,53.55,0,0,0,288.7,409a.83.83,0,0,0,1.21.92l.72-.29a.35.35,0,0,0,.41.28c2.4-.31,4.73-.77,7.1-1.29A.81.81,0,0,0,298.61,407.41Z"/><path class="h" d="M311,387.93c-3.26-.08-6.51-.16-9.77-.15a.8.8,0,0,0-.68,1.19c1.25,2.64,2.38,5.41,3.87,7.92a.52.52,0,0,0,.3.25l.48,1.58a.67.67,0,0,0,1.21.16q2.6-5,5.18-9.92A.69.69,0,0,0,311,387.93Z"/><path class="q" d="M311.67,373.34a28.11,28.11,0,0,0-7.48-7.66.87.87,0,0,0-1.29.74c-.06,3.82-.2,7.66,0,11.47a.75.75,0,0,0,1,.72.63.63,0,0,0,.88.29c2.2-1.54,4.45-3,6.7-4.48A.81.81,0,0,0,311.67,373.34Z"/><path class="h" d="M311.58,362.78a47.36,47.36,0,0,1-.5-9.29.77.77,0,0,0-1.15-.66l-7.09,3.66a.81.81,0,0,0,0,1.39,57.14,57.14,0,0,1,6.35,5.15.74.74,0,0,0,.88,0l.41.37A.66.66,0,0,0,311.58,362.78Z"/><path class="h" d="M327,396.9c-5.48,22.88-29.33,41.07-52.48,30.54-23.39-10.61-37.44-40.21-36-65.25l.93-.34c.26,16.26,7.42,31.45,17.2,44.25,8.66,11.37,22.23,22.22,37.44,18.92,13.7-2.95,23.37-15.37,27.51-28.12A74.15,74.15,0,0,0,325,370.35,115.23,115.23,0,0,0,323.32,357a24.33,24.33,0,0,1,3.49,2.82c.46,3.55.79,7.09,1.11,10.5C328.76,379.15,329.07,388.26,327,396.9Z"/><path class="h" d="M300,357.6c-.22-1.75-.28-4-.69-6-1.8.07-3.6.19-5.41.36s-3.4.35-5.1.59c-5.27.71-10.48,1.68-15.52,2.49h-.11l-1.88.3c-3.11.49-6.22.92-9.31,1.41,1.4,4.39,1.67,10.63,4.38,14.38.27.94.54,1.87.83,2.82,1.54,5,3.63,10.26,7.63,13.84,7.25,6.46,17.52,4.75,22-3.8a36.71,36.71,0,0,0,3.76-16.15A67.7,67.7,0,0,0,300,357.6Z"/><path class="q" d="M294,371.57c-.56,5.69-1.87,13.37-8.66,14.66-6.27,1.2-9.83-5.62-11.61-10.45a43.09,43.09,0,0,1-2.4-20.42l1.88-.3h.11c.38,5.07.79,10.07,2.5,15a46.93,46.93,0,0,0,3.2,7.18c.47.83,1.32,2.76,2.19,3.16l5.86-1.13.85-2.07c1.53-5,1.3-11,1.34-16.24,0-2.6-.36-5.51-.42-8.35,1.7-.24,3.4-.44,5.1-.59.27,2,.33,4.13.43,6A85.51,85.51,0,0,1,294,371.57Z"/></g></svg>