<svg xmlns="http://www.w3.org/2000/svg" width="225" height="88.799" viewBox="0 0 225 88.799"><defs><style>.a{fill:#e66453;}</style></defs><path class="a" d="M174.66,2.43l.286-.1-.8-2.273L147.636,9.334V.991h-2.409v9.192L106.2,23.85,95.348,0,80.242,32.94,64.173,38.567A31.212,31.212,0,1,0,13.79,56.209L.283,60.939l-.283.1.795,2.273,15.314-5.363A31.188,31.188,0,0,0,63.444,41.374l15.4-5.393L66.5,62.92l-.2.428h2.644L82.01,34.876l22.919-8.027,16.614,36.5h2.647l-16.985-37.3,38.022-13.314V63.492h2.409v-51.6ZM103.92,24.648,83.4,31.835,95.345,5.8ZM60.544,42.388A28.749,28.749,0,0,1,19.017,56.931ZM16.5,55.26a29.149,29.149,0,0,1-3.216-2.776A28.782,28.782,0,0,1,33.65,3.348a30.353,30.353,0,0,1,7.311.9A28.113,28.113,0,0,1,61.52,24.813a29.525,29.525,0,0,1-.051,14.7Z"/><path class="a" d="M584.347.6l-.274-.6L555.216,62.92l-.2.428h2.65L584.064,5.8l26.2,57.551h2.647Z" transform="translate(-387.906)"/><path class="a" d="M87.739,260.06,83.68,270.309h1.6l2.752-6.931,2.707,6.931h1.6l-4-10.249Z" transform="translate(-58.484 -181.757)"/><path class="a" d="M140.018,260.06H138.54v10.249H143.4v-1.536h-3.378Z" transform="translate(-96.826 -181.757)"/><path class="a" d="M185.088,260.2a9.19,9.19,0,0,0-2.108-.157h-2.05v10.237h1.478V265.8h.325a10.578,10.578,0,0,0,2.309-.166,2.577,2.577,0,0,0,1.448-.954,3.207,3.207,0,0,0,0-3.541,2.544,2.544,0,0,0-1.4-.945Zm.419,2.71a1.418,1.418,0,0,1-.2.747,1.084,1.084,0,0,1-.518.461,3.231,3.231,0,0,1-1.2.154l-1.189-.015V261.59h1.262a3.1,3.1,0,0,1,1.159.145,1.057,1.057,0,0,1,.491.452,1.388,1.388,0,0,1,.2.732Z" transform="translate(-126.453 -181.739)"/><path class="a" d="M230,260.06l-4.059,10.249h1.6l2.752-6.931L233,270.309h1.6l-4-10.249Z" transform="translate(-157.91 -181.757)"/><path class="a" d="M287.387,267.014a3.462,3.462,0,0,1-2.848,1.472,3.312,3.312,0,0,1-2.559-1.087,3.824,3.824,0,0,1-1.021-2.737,4.146,4.146,0,0,1,.458-1.96,3.511,3.511,0,0,1,1.28-1.373,3.36,3.36,0,0,1,1.789-.509,3.426,3.426,0,0,1,1.623.388,3.585,3.585,0,0,1,1.271,1.147l.187.271,1.15-.97-.148-.223a4.763,4.763,0,0,0-1.731-1.6,4.941,4.941,0,0,0-2.364-.569,4.751,4.751,0,0,0-3.613,1.542,5.329,5.329,0,0,0-1.433,3.77,5.721,5.721,0,0,0,1.18,3.613A4.691,4.691,0,0,0,284.479,270a5.119,5.119,0,0,0,2.33-.533,4.817,4.817,0,0,0,1.746-1.505l.163-.226-1.147-.954Z" transform="translate(-195.291 -181.202)"/><path class="a" d="M338.829,260.06l-4.059,10.249h1.6l2.752-6.931,2.707,6.931h1.6l-4-10.249Z" transform="translate(-233.972 -181.757)"/><path class="a" d="M450.361,266.05H453.1a3.011,3.011,0,0,1-3.044,2.409,3.634,3.634,0,0,1-1.9-.518,3.685,3.685,0,0,1-1.361-1.424,4,4,0,0,1-.494-1.927,3.893,3.893,0,0,1,.479-1.873,3.541,3.541,0,0,1,1.337-1.394,3.433,3.433,0,0,1,3.387-.132,4.89,4.89,0,0,1,1.505,1.132l.217.235,1.1-1.147-.2-.208a6.606,6.606,0,0,0-2.017-1.484,5.341,5.341,0,0,0-2.222-.47,4.92,4.92,0,0,0-4.456,2.671,5.672,5.672,0,0,0-.662,2.692,5.441,5.441,0,0,0,1.156,3.429,4.929,4.929,0,0,0,4.092,1.939,4.435,4.435,0,0,0,3.426-1.412,5.433,5.433,0,0,0,1.286-3.752v-.3h-4.378Z" transform="translate(-310.857 -181.189)"/><path class="a" d="M508.689,259.258a4.5,4.5,0,0,0-2.451.72,5.016,5.016,0,0,0-1.773,1.975,5.826,5.826,0,0,0-.647,2.71,5.392,5.392,0,0,0,1.424,3.758,4.7,4.7,0,0,0,7.013,0,5.787,5.787,0,0,0,0-7.6A4.652,4.652,0,0,0,508.689,259.258Zm3.475,5.359a4.233,4.233,0,0,1-.455,1.96,3.466,3.466,0,0,1-1.25,1.373,3.219,3.219,0,0,1-1.731.5,3.1,3.1,0,0,1-2.409-1.087,3.821,3.821,0,0,1-1.009-2.71,4.215,4.215,0,0,1,.458-1.966,3.546,3.546,0,0,1,1.259-1.388,3.08,3.08,0,0,1,1.686-.512,3.18,3.18,0,0,1,1.716.512,3.556,3.556,0,0,1,1.265,1.373,4.111,4.111,0,0,1,.467,1.945Z" transform="translate(-352.119 -181.196)"/><path class="a" d="M567.626,259.258a4.484,4.484,0,0,0-2.448.72,5,5,0,0,0-1.776,1.975,5.869,5.869,0,0,0-.644,2.71,5.4,5.4,0,0,0,1.421,3.758,4.607,4.607,0,0,0,3.52,1.566,4.559,4.559,0,0,0,3.493-1.575,5.79,5.79,0,0,0,0-7.6A4.658,4.658,0,0,0,567.626,259.258Zm3.475,5.359a4.215,4.215,0,0,1-.455,1.96,3.46,3.46,0,0,1-1.247,1.373,3.228,3.228,0,0,1-1.734.5,3.11,3.11,0,0,1-2.394-1.087,3.818,3.818,0,0,1-1.006-2.71,4.215,4.215,0,0,1,.458-1.966,3.541,3.541,0,0,1,1.255-1.388,3.1,3.1,0,0,1,1.686-.512,3.171,3.171,0,0,1,1.716.512,3.565,3.565,0,0,1,1.268,1.373A4.108,4.108,0,0,1,571.1,264.618Z" transform="translate(-393.313 -181.196)"/><path class="a" d="M628.117,260.43a8.636,8.636,0,0,0-2.969-.37H623.04V270.3h3.1a5.532,5.532,0,0,0,2.71-.566,4.161,4.161,0,0,0,1.6-1.749,5.791,5.791,0,0,0,.6-2.689,5.881,5.881,0,0,0-.792-3.032A4.215,4.215,0,0,0,628.117,260.43Zm1.415,4.893a3.914,3.914,0,0,1-.524,2.093,2.635,2.635,0,0,1-1.4,1.147,8.483,8.483,0,0,1-2.424.232h-.714v-7.187h.319a9.288,9.288,0,0,1,2.62.259,2.827,2.827,0,0,1,1.554,1.231A4.164,4.164,0,0,1,629.532,265.323Z" transform="translate(-435.445 -181.757)"/><path class="a" d="M677.323,263.766c-.78-.632-1.03-.858-1.1-.93a1.977,1.977,0,0,1-.379-.554,1.294,1.294,0,0,1-.1-.5.921.921,0,0,1,.256-.665.849.849,0,0,1,.65-.259,1.036,1.036,0,0,1,.6.181,3.289,3.289,0,0,1,.762.87l.187.271,1.177-.982-.151-.226a4.4,4.4,0,0,0-1.234-1.331,2.448,2.448,0,0,0-2.556-.042,2.379,2.379,0,0,0-.885.933,2.735,2.735,0,0,0-.3,1.289,2.869,2.869,0,0,0,.515,1.641,8.188,8.188,0,0,0,1.427,1.385,7.225,7.225,0,0,1,1.442,1.478,1.43,1.43,0,0,1,.25.786,1.387,1.387,0,0,1-.166.665,1.2,1.2,0,0,1-.479.488,1.292,1.292,0,0,1-.677.187c-.56,0-1.081-.482-1.551-1.427l-.151-.3-1.253.825.117.241a4.541,4.541,0,0,0,1.295,1.68,2.743,2.743,0,0,0,1.626.524,2.626,2.626,0,0,0,1.984-.87,2.873,2.873,0,0,0,.807-2.026,3.126,3.126,0,0,0-.467-1.6,6.925,6.925,0,0,0-1.65-1.731Z" transform="translate(-470.789 -181.2)"/></svg>