<svg xmlns="http://www.w3.org/2000/svg" width="274" height="53.74" viewBox="0 0 274 53.74" fill='currentColor'>
  <g id="Group_117" data-name="Group 117" transform="translate(-25.906 -58.838)">
    <g id="Group_121" data-name="Group 121" transform="translate(25.906 58.838)">
      <g id="Group_119" data-name="Group 119">
        <g id="Group_110" data-name="Group 110" transform="translate(43.419 0.388)">
          <path id="Path_33" data-name="Path 33" d="M205.466,76.95H194.483l-3.415,10.711h-3.182L196.734,60.3h6.52l8.809,27.359H208.92Zm-.854-2.716-4.191-13.04h-.892l-4.152,13.04Z" transform="translate(-187.886 -60.302)" fill="currentColor"/>
        </g>
        <g id="Group_111" data-name="Group 111" transform="translate(79.264 0.388)">
          <path id="Path_34" data-name="Path 34" d="M321.667,60.3h9.08c6.52,0,10.672,1.514,10.672,7.645,0,4.114-2.135,5.937-5.084,6.442v.932h3.26c1.553,0,2.173.621,2.173,2.056V87.661h-3.182V76.678H324.849V87.661h-3.182Zm9.08,13.66c4.657,0,7.49-.466,7.49-5.472,0-5.046-2.833-5.472-7.49-5.472h-5.9V73.962Z" transform="translate(-321.667 -60.302)" fill="currentColor"/>
        </g>
        <g id="Group_112" data-name="Group 112" transform="translate(112.498 0.388)">
          <path id="Path_35" data-name="Path 35" d="M445.485,60.3h6.4l7.761,26.467h.893l7.8-26.467h6.364V87.661h-3.182V63.485l.543-2.29h-.932L463.3,87.661h-6.4l-7.839-26.467h-.892l.5,2.29V87.661h-3.182Z" transform="translate(-445.485 -60.302)" fill="currentColor"/>
        </g>
        <g id="Group_113" data-name="Group 113" transform="translate(154.851 0.388)">
          <path id="Path_36" data-name="Path 36" d="M622.711,69.227c0,7.179-4.385,9-11.293,9h-4.5v9.43h-3.182V60.3h7.684C618.326,60.3,622.711,62.088,622.711,69.227Zm-3.182,0c0-5.355-3.415-6.209-8.072-6.209h-4.54v12.5h4.54C616.114,75.514,619.529,74.661,619.529,69.227Z" transform="translate(-603.735 -60.302)" fill="currentColor"/>
        </g>
        <g id="Group_114" data-name="Group 114" transform="translate(181.519 0.388)">
          <path id="Path_37" data-name="Path 37" d="M720.66,76.95H709.677l-3.415,10.711H703.08L711.928,60.3h6.52l8.809,27.359h-3.143Zm-.854-2.716-4.191-13.04h-.892l-4.152,13.04Z" transform="translate(-703.08 -60.302)" fill="currentColor"/>
        </g>
        <g id="Group_115" data-name="Group 115" transform="translate(215.441)">
          <path id="Path_38" data-name="Path 38" d="M840.877,58.838c6.985,0,11.564,4.191,12.379,10.943h-3.182c-.62-5.239-3.842-8.226-9.2-8.226-6.365,0-9.624,4.734-9.624,11.331,0,6.636,3.259,11.37,9.624,11.37,5.355,0,8.576-3.027,9.2-8.266h3.182c-.815,6.791-5.394,10.983-12.379,10.983-8.034,0-12.806-6.093-12.806-14.087C828.071,64.931,832.844,58.838,840.877,58.838Z" transform="translate(-828.071 -58.838)" fill="currentColor"/>
        </g>
        <g id="Group_116" data-name="Group 116" transform="translate(249.823 0.388)">
          <path id="Path_39" data-name="Path 39" d="M975.475,76.95H964.492l-3.415,10.711H957.9L966.743,60.3h6.52l8.809,27.359h-3.143Zm-.854-2.716-4.191-13.04h-.892l-4.152,13.04Z" transform="translate(-957.895 -60.302)" fill="currentColor"/>
        </g>
        <g id="Group_117-2" data-name="Group 117" transform="translate(0 0.352)">
          <path id="Path_40" data-name="Path 40" d="M28.936,60.166l5.6,26.5h.933l5.556-20.187h6.566l5.556,20.187h.933l5.6-26.5H62.7L56.873,87.559H50.385L44.751,67.373h-.894l-5.6,20.187H31.774L25.906,60.166Z" transform="translate(-25.906 -60.166)" fill="currentColor"/>
        </g>
        <g id="Group_118" data-name="Group 118" transform="translate(15.045 0.352)">
          <rect id="Rectangle_86" data-name="Rectangle 86" width="6.94" height="2.233" fill="currentColor"/>
        </g>
      </g>
      <g id="Group_120" data-name="Group 120" transform="translate(29.972 45.039)">
        <path id="Path_41" data-name="Path 41" d="M139.079,226.682h1.1v3.54H144.7v-3.54h1.084v8.4H144.7v-3.91h-4.529v3.91h-1.1Z" transform="translate(-139.079 -226.682)" fill="currentColor"/>
        <path id="Path_42" data-name="Path 42" d="M197.966,226.682h1.478l3.135,8.4h-1.037l-.715-1.884h-4.279l-.715,1.884h-1.037Zm2.551,5.626-1.764-4.672h-.107l-1.776,4.672Z" transform="translate(-180.039 -226.682)" fill="currentColor"/>
        <path id="Path_43" data-name="Path 43" d="M254.563,226.682h1.561l3.981,6.973h.107v-6.973H261.3v8.4h-1.55l-3.981-6.973h-.119v6.973h-1.085Z" transform="translate(-223.979 -226.682)" fill="currentColor"/>
        <path id="Path_44" data-name="Path 44" d="M313.3,226.682h2.693a5.879,5.879,0,0,1,2.539.518,3.95,3.95,0,0,1,1.7,1.472,4.34,4.34,0,0,1,0,4.41,3.988,3.988,0,0,1-1.7,1.478,5.822,5.822,0,0,1-2.539.524H313.3Zm2.693,7.449a4.663,4.663,0,0,0,1.973-.393,3.033,3.033,0,0,0,1.323-1.132,3.4,3.4,0,0,0,0-3.451,3.048,3.048,0,0,0-1.323-1.126,4.663,4.663,0,0,0-1.973-.393H314.38v6.5Z" transform="translate(-266.506 -226.682)" fill="currentColor"/>
        <path id="Path_45" data-name="Path 45" d="M373.063,226.682h1.716l2.777,6.889h.107l2.789-6.889h1.7v8.4h-1.085v-7.032h-.107l-2.837,7.032h-1.037l-2.825-7.021h-.107v7.021h-1.1Z" transform="translate(-310.215 -226.682)" fill="currentColor"/>
        <path id="Path_46" data-name="Path 46" d="M441,226.682h1.478l3.135,8.4h-1.037l-.715-1.884h-4.279l-.715,1.884h-1.037Zm2.551,5.626-1.764-4.672h-.107l-1.776,4.672Z" transform="translate(-357.589 -226.682)" fill="currentColor"/>
        <path id="Path_47" data-name="Path 47" d="M497.594,226.682h2.694a5.878,5.878,0,0,1,2.539.518,3.952,3.952,0,0,1,1.7,1.472,4.341,4.341,0,0,1,0,4.41,3.99,3.99,0,0,1-1.7,1.478,5.821,5.821,0,0,1-2.539.524h-2.694Zm2.694,7.449a4.662,4.662,0,0,0,1.972-.393,3.033,3.033,0,0,0,1.323-1.132,3.4,3.4,0,0,0,0-3.451,3.048,3.048,0,0,0-1.323-1.126,4.662,4.662,0,0,0-1.972-.393h-1.609v6.5Z" transform="translate(-401.306 -226.682)" fill="currentColor"/>
        <path id="Path_48" data-name="Path 48" d="M557.406,226.682h5.769v.953H558.5v2.622h4.2v.954h-4.2v2.92h4.791v.954h-5.888Z" transform="translate(-445.066 -226.682)" fill="currentColor"/>
        <path id="Path_49" data-name="Path 49" d="M646.922,226.682h1.084v8.4h-1.084Z" transform="translate(-510.585 -226.682)" fill="currentColor"/>
        <path id="Path_50" data-name="Path 50" d="M684.321,226.682h1.561l3.981,6.973h.107v-6.973h1.085v8.4h-1.55l-3.981-6.973h-.119v6.973h-1.085Z" transform="translate(-537.891 -226.682)" fill="currentColor"/>
        <path id="Path_51" data-name="Path 51" d="M779.058,226.682h3.349a3.331,3.331,0,0,1,2.2.679,2.3,2.3,0,0,1,.816,1.871,2.508,2.508,0,0,1-.375,1.377,2.427,2.427,0,0,1-1.061.906,3.739,3.739,0,0,1-1.579.316h-2.288v3.254h-1.061Zm3.349,4.184a2.148,2.148,0,0,0,1.424-.435,1.6,1.6,0,0,0,0-2.36,2.149,2.149,0,0,0-1.424-.435h-2.288v3.23Z" transform="translate(-607.19 -226.682)" fill="currentColor"/>
        <path id="Path_52" data-name="Path 52" d="M834.008,226.682h5.769v.953H835.1v2.622h4.2v.954h-4.2v2.92H839.9v.954h-5.888Z" transform="translate(-646.966 -226.682)" fill="currentColor"/>
        <path id="Path_53" data-name="Path 53" d="M887.52,226.682h3.659a3.767,3.767,0,0,1,1.591.316,2.454,2.454,0,0,1,1.061.894,2.412,2.412,0,0,1,.375,1.341,2.326,2.326,0,0,1-.346,1.257,2.489,2.489,0,0,1-.953.882,3.182,3.182,0,0,1-1.383.364h-.143l3.051,3.349h-1.371l-2.908-3.29H888.6v3.29H887.52Zm3.659,4.16a2.15,2.15,0,0,0,1.425-.435,1.454,1.454,0,0,0,.518-1.174,1.437,1.437,0,0,0-.518-1.168,2.17,2.17,0,0,0-1.425-.429H888.6v3.206Z" transform="translate(-686.307 -226.682)" fill="currentColor"/>
        <path id="Path_54" data-name="Path 54" d="M945.593,234.93a3.242,3.242,0,0,1-1.234-1.258,3.683,3.683,0,0,1-.447-1.818v-5.173h1.1v5.173a2.855,2.855,0,0,0,.3,1.329,2.35,2.35,0,0,0,3.271.918,2.227,2.227,0,0,0,.835-.918,2.909,2.909,0,0,0,.3-1.329v-5.173H950.8v5.173a3.722,3.722,0,0,1-.441,1.818,3.212,3.212,0,0,1-1.222,1.258,3.464,3.464,0,0,1-1.77.453A3.5,3.5,0,0,1,945.593,234.93Z" transform="translate(-727.764 -226.682)" fill="currentColor"/>
      </g>
    </g>
  </g>
</svg>
